<?xml version="1.0" encoding="utf-8"?>
<!-- Generator: Adobe Illustrator 26.3.1, SVG Export Plug-In . SVG Version: 6.00 Build 0)  -->
<svg version="1.1" id="Layer_1" xmlns="http://www.w3.org/2000/svg" xmlns:xlink="http://www.w3.org/1999/xlink" x="0px" y="0px"
	 viewBox="0 0 318 60" style="enable-background:new 0 0 318 60;" xml:space="preserve">
<style type="text/css">
	.st0{fill:#F0145A;}
	.st1{fill:#323264;}
	.st2{fill-rule:evenodd;clip-rule:evenodd;fill:#F0145A;}
</style>
<g>
	<g>
		<path class="st0" d="M5,0H0v35.8h5V22.5c0-2.2,0.6-4,1.7-5.3s2.6-1.9,4.5-1.9c1.6,0,3,0.6,4.1,1.7c1.1,1.2,1.7,2.6,1.7,4.4v14.3h5
			V21.5c0-3.3-0.9-5.9-2.7-7.8c-1.8-1.9-4.2-2.9-7-2.9c-0.8,0-1.7,0.1-2.5,0.3c-0.8,0.2-1.5,0.5-2,0.7c-0.5,0.3-1,0.6-1.5,0.9
			c-0.5,0.3-0.8,0.6-0.9,0.7C5.1,13.7,5,13.8,5,13.8V0z"/>
		<path class="st1" d="M33,0h-5.1v35.8H33V0z"/>
		<path class="st1" d="M63.1,25.3l0.3-2.6c0-3.4-1.1-6.3-3.4-8.6c-2.3-2.3-5.2-3.4-8.6-3.4S45,12,42.5,14.4
			c-2.5,2.5-3.7,5.4-3.7,8.8c0,3.6,1.3,6.6,3.8,9.2c2.5,2.6,5.5,3.8,9,3.8c1.3,0,2.6-0.2,3.8-0.6c1.2-0.4,2.2-0.8,3-1.2
			c0.8-0.5,1.5-1,2.2-1.5c0.7-0.6,1.1-1,1.3-1.2c0.2-0.3,0.4-0.4,0.5-0.6L59,27.8l-0.8,1c-0.5,0.6-1.4,1.2-2.6,1.9
			c-1.3,0.7-2.6,1-4,1c-2,0-3.7-0.6-5.1-1.9c-1.4-1.3-2.3-2.8-2.6-4.5H63.1z M51.4,15.1c1.9,0,3.4,0.6,4.7,1.6
			c1.2,1.1,2,2.5,2.3,4.2H44.2c0.5-1.7,1.3-3.1,2.6-4.2C47.9,15.6,49.5,15.1,51.4,15.1z"/>
		<path class="st1" d="M86.9,34.3c0,2.2-0.7,4.1-2,5.5c-1.3,1.4-3,2.1-5.1,2.1c-0.9,0-1.8-0.2-2.7-0.4c-0.9-0.3-1.5-0.6-2.1-0.9
			c-0.6-0.4-1.1-0.7-1.6-1.2c-0.5-0.5-0.8-0.8-0.9-0.9c-0.2-0.2-0.3-0.3-0.4-0.4l-3.3,3.3l0.4,0.5c0.3,0.4,0.7,0.8,1.3,1.3
			c0.6,0.5,1.3,1,2.1,1.5c0.8,0.5,1.8,0.9,3.1,1.2c1.3,0.4,2.6,0.6,4,0.6c3.5,0,6.3-1.2,8.7-3.5c2.4-2.4,3.5-5.3,3.5-8.7v-23h-5.1
			v2.6L86.1,13c-0.6-0.5-1.4-1-2.7-1.5c-1.2-0.5-2.6-0.8-3.9-0.8c-3.1,0-5.8,1.2-8.1,3.6C69.2,16.7,68,19.6,68,23s1.1,6.3,3.4,8.7
			s5,3.6,8.1,3.6c0.9,0,1.7-0.1,2.6-0.3c0.8-0.3,1.5-0.5,2-0.8s1.1-0.6,1.5-0.9c0.5-0.4,0.8-0.6,0.9-0.7l0.4-0.4V34.3z M73.1,23
			c0-2.1,0.7-3.9,2-5.4c1.4-1.5,3-2.2,4.9-2.2c1.8,0,3.5,0.8,4.9,2.2c1.3,1.5,2,3.3,2,5.4s-0.7,3.9-2,5.4c-1.4,1.5-3,2.2-4.9,2.2
			c-1.8,0-3.5-0.8-4.9-2.2C73.8,26.9,73.1,25.1,73.1,23z"/>
		<path class="st1" d="M118.7,35.8V19.9c0-2.6-1-4.8-2.9-6.5c-1.9-1.8-4.3-2.7-7.4-2.7c-1.2,0-2.3,0.2-3.5,0.5
			c-1.1,0.4-2,0.7-2.7,1.1c-0.7,0.4-1.3,0.9-1.9,1.4c-0.6,0.5-1,0.9-1.2,1.1c-0.2,0.2-0.3,0.4-0.4,0.5l3.3,3.3l0.7-0.9
			c0.4-0.6,1.1-1.1,2.2-1.6c1.1-0.6,2.2-0.8,3.5-0.8c1.5,0,2.7,0.5,3.7,1.3c1,0.9,1.4,2,1.4,3.3l-8.9,1.5c-2.2,0.4-4,1.2-5.2,2.6
			c-1.3,1.4-1.9,3.1-1.9,5.1c0,1.9,0.8,3.5,2.5,5c1.7,1.5,3.7,2.2,6.2,2.2c0.9,0,1.7-0.1,2.5-0.4c0.9-0.2,1.5-0.5,2.1-0.7
			c0.6-0.3,1.1-0.6,1.5-0.9c0.5-0.4,0.8-0.6,1-0.7c0.2-0.2,0.3-0.3,0.3-0.4v2.6H118.7z M107,31.7c-1.3,0-2.4-0.3-3.2-0.9
			c-0.8-0.6-1.2-1.3-1.2-2.1c0-0.9,0.3-1.6,0.8-2.2c0.6-0.6,1.3-1,2.2-1.1l7.9-1.3v0.5c0,2.3-0.6,4-1.7,5.3
			C110.7,31.1,109.1,31.7,107,31.7z"/>
		<path class="st1" d="M130,0h-5.1v35.8h5.1V0z"/>
		<path class="st1" d="M0,53.1h1.6v5.6h3.5V60H0V53.1z"/>
		<path class="st1" d="M15.5,58.5h-3.2L11.7,60H10l3.1-6.9h1.6l3.1,6.9h-1.7L15.5,58.5z M15,57.3l-1.1-2.6l-1.1,2.6H15z"/>
		<path class="st1" d="M33.5,53.1L31.3,60h-1.7L28,55.3L26.4,60h-1.7l-2.3-6.9h1.7l1.6,4.9l1.6-4.9h1.5l1.6,4.9l1.6-4.9H33.5z"/>
		<path class="st1" d="M50.5,60.1c-0.7,0-1.3-0.2-1.9-0.5c-0.6-0.3-1-0.7-1.3-1.3c-0.3-0.5-0.5-1.2-0.5-1.8c0-0.7,0.2-1.3,0.5-1.8
			c0.3-0.5,0.8-1,1.3-1.3c0.6-0.3,1.2-0.5,1.9-0.5c0.6,0,1.1,0.1,1.6,0.3c0.5,0.2,0.9,0.5,1.2,0.9l-1,0.9c-0.5-0.5-1-0.8-1.7-0.8
			c-0.4,0-0.8,0.1-1.1,0.3c-0.3,0.2-0.6,0.4-0.8,0.8c-0.2,0.3-0.3,0.7-0.3,1.1c0,0.4,0.1,0.8,0.3,1.1c0.2,0.3,0.5,0.6,0.8,0.8
			c0.3,0.2,0.7,0.3,1.1,0.3c0.7,0,1.3-0.3,1.7-0.8l1,0.9c-0.3,0.4-0.7,0.7-1.2,0.9C51.7,60,51.1,60.1,50.5,60.1z"/>
		<path class="st1" d="M62.6,60.1c-0.7,0-1.4-0.2-1.9-0.5c-0.6-0.3-1-0.7-1.4-1.3c-0.3-0.5-0.5-1.2-0.5-1.8c0-0.7,0.2-1.3,0.5-1.8
			c0.3-0.5,0.8-1,1.4-1.3c0.6-0.3,1.2-0.5,1.9-0.5s1.4,0.2,1.9,0.5c0.6,0.3,1,0.7,1.4,1.3c0.3,0.5,0.5,1.1,0.5,1.8
			c0,0.7-0.2,1.3-0.5,1.8c-0.3,0.5-0.8,1-1.4,1.3C64,60,63.3,60.1,62.6,60.1z M62.6,58.8c0.4,0,0.8-0.1,1.1-0.3
			c0.3-0.2,0.6-0.5,0.8-0.8c0.2-0.3,0.3-0.7,0.3-1.1c0-0.4-0.1-0.8-0.3-1.1c-0.2-0.3-0.4-0.6-0.8-0.8c-0.3-0.2-0.7-0.3-1.1-0.3
			s-0.8,0.1-1.1,0.3c-0.3,0.2-0.6,0.4-0.8,0.8c-0.2,0.3-0.3,0.7-0.3,1.1c0,0.4,0.1,0.8,0.3,1.1c0.2,0.3,0.5,0.6,0.8,0.8
			C61.8,58.7,62.2,58.8,62.6,58.8z"/>
		<path class="st1" d="M78.8,60l0-4.1l-2,3.4H76L74,56V60h-1.5v-6.9h1.3l2.6,4.3l2.5-4.3h1.3l0,6.9H78.8z"/>
		<path class="st1" d="M89.9,53.1c0.6,0,1.1,0.1,1.6,0.3c0.5,0.2,0.8,0.5,1,0.9c0.2,0.4,0.4,0.8,0.4,1.3c0,0.5-0.1,1-0.4,1.3
			c-0.2,0.4-0.6,0.7-1,0.9c-0.4,0.2-1,0.3-1.6,0.3h-1.4V60h-1.6v-6.9H89.9z M89.8,56.8c0.5,0,0.8-0.1,1.1-0.3
			c0.3-0.2,0.4-0.5,0.4-0.9c0-0.4-0.1-0.7-0.4-0.9c-0.3-0.2-0.6-0.3-1.1-0.3h-1.3v2.4H89.8z"/>
		<path class="st1" d="M103.1,58.5h-3.2L99.3,60h-1.6l3.1-6.9h1.6l3.1,6.9h-1.7L103.1,58.5z M102.6,57.3l-1.1-2.6l-1.1,2.6H102.6z"
			/>
		<path class="st1" d="M117.4,53.1V60h-1.3l-3.4-4.2V60h-1.6v-6.9h1.3l3.4,4.2v-4.2H117.4z"/>
		<path class="st1" d="M127.3,57.6V60h-1.6v-2.5l-2.7-4.4h1.7l1.8,3.1l1.8-3.1h1.6L127.3,57.6z"/>
		<path class="st2" d="M149.2,0h5.8l-15.2,47H134L149.2,0z"/>
		<path class="st1" d="M169.2,15.9c2.5,0,4.4,0.6,5.7,1.9c1.3,1.2,2,3,2,5.5V35h-2.4v-3c-0.6,1-1.4,1.8-2.6,2.3
			c-1.1,0.6-2.4,0.8-4,0.8c-2.1,0-3.8-0.5-5-1.5s-1.9-2.3-1.9-4c0-1.6,0.6-2.9,1.7-3.9c1.2-1,3-1.5,5.6-1.5h6v-1.2
			c0-1.6-0.5-2.9-1.4-3.7c-0.9-0.9-2.2-1.3-4-1.3c-1.2,0-2.4,0.2-3.5,0.6c-1.1,0.4-2.1,0.9-2.8,1.6l-1.2-1.9c1-0.8,2.1-1.4,3.5-1.9
			C166.3,16.1,167.7,15.9,169.2,15.9z M168.3,33.2c1.4,0,2.7-0.3,3.7-1c1-0.7,1.8-1.6,2.3-2.9v-3.1h-5.9c-3.2,0-4.9,1.1-4.9,3.4
			c0,1.1,0.4,2,1.3,2.6C165.6,32.9,166.8,33.2,168.3,33.2z M193.6,15.9c1.8,0,3.4,0.4,4.8,1.2c1.4,0.8,2.6,1.9,3.4,3.4
			c0.8,1.5,1.2,3.1,1.2,5s-0.4,3.5-1.2,5c-0.8,1.5-1.9,2.6-3.4,3.4c-1.4,0.8-3,1.2-4.8,1.2c-1.6,0-3-0.3-4.3-1
			c-1.2-0.7-2.3-1.6-3-2.9V35h-2.4V8.3h2.6v11.4c0.8-1.2,1.8-2.1,3-2.8C190.6,16.2,192,15.9,193.6,15.9z M193.4,32.9
			c1.3,0,2.5-0.3,3.6-0.9c1.1-0.6,1.9-1.5,2.5-2.6c0.6-1.1,0.9-2.4,0.9-3.9s-0.3-2.7-0.9-3.9c-0.6-1.1-1.4-2-2.5-2.6
			c-1.1-0.6-2.3-0.9-3.6-0.9c-1.3,0-2.6,0.3-3.6,0.9c-1.1,0.6-1.9,1.5-2.5,2.6c-0.6,1.1-0.9,2.4-0.9,3.9s0.3,2.7,0.9,3.9
			c0.6,1.1,1.5,2,2.5,2.6C190.8,32.6,192,32.9,193.4,32.9z M215.9,35.2c-1.8,0-3.5-0.4-4.9-1.2c-1.5-0.8-2.6-2-3.5-3.5
			c-0.8-1.5-1.3-3.1-1.3-5s0.4-3.5,1.3-5c0.8-1.5,2-2.6,3.5-3.4c1.5-0.8,3.1-1.2,4.9-1.2c1.8,0,3.5,0.4,4.9,1.2
			c1.5,0.8,2.6,2,3.4,3.4c0.8,1.5,1.3,3.1,1.3,5s-0.4,3.5-1.3,5c-0.8,1.5-2,2.6-3.4,3.5C219.4,34.8,217.8,35.2,215.9,35.2z
			 M215.9,32.9c1.3,0,2.5-0.3,3.6-0.9c1.1-0.6,1.9-1.5,2.5-2.6c0.6-1.1,0.9-2.4,0.9-3.9s-0.3-2.7-0.9-3.9c-0.6-1.1-1.4-2-2.5-2.6
			c-1.1-0.6-2.3-0.9-3.6-0.9c-1.3,0-2.6,0.3-3.6,0.9c-1.1,0.6-1.9,1.5-2.5,2.6c-0.6,1.1-0.9,2.4-0.9,3.9s0.3,2.7,0.9,3.9
			c0.6,1.1,1.5,2,2.5,2.6C213.4,32.6,214.6,32.9,215.9,32.9z M247.8,16.1V35h-2.4v-3.5c-0.7,1.2-1.6,2.1-2.8,2.7
			c-1.2,0.6-2.5,0.9-4,0.9c-2.5,0-4.4-0.7-5.9-2.1c-1.4-1.4-2.1-3.4-2.1-6.1v-11h2.6v10.7c0,2,0.5,3.5,1.5,4.5c1,1,2.4,1.5,4.2,1.5
			c2,0,3.6-0.6,4.7-1.8c1.2-1.2,1.7-2.9,1.7-5.1v-9.9H247.8z M265,33.8c-0.5,0.4-1.1,0.8-1.8,1c-0.7,0.2-1.4,0.3-2.2,0.3
			c-1.8,0-3.1-0.5-4.1-1.4c-1-1-1.4-2.3-1.4-4.1V18.2H252v-2.2h3.4v-4.1h2.6v4.1h5.8v2.2H258v11.3c0,1.1,0.3,2,0.8,2.6
			c0.6,0.6,1.4,0.9,2.4,0.9c0.5,0,1-0.1,1.5-0.3c0.5-0.2,0.9-0.4,1.3-0.7L265,33.8z M296.1,16.1V35h-2.4v-3.5
			c-0.7,1.2-1.6,2.1-2.8,2.7c-1.2,0.6-2.5,0.9-4,0.9c-2.5,0-4.4-0.7-5.9-2.1c-1.4-1.4-2.1-3.4-2.1-6.1v-11h2.6v10.7
			c0,2,0.5,3.5,1.5,4.5c1,1,2.4,1.5,4.2,1.5c2,0,3.6-0.6,4.7-1.8c1.2-1.2,1.7-2.9,1.7-5.1v-9.9H296.1z M308.3,35.2
			c-1.5,0-3-0.2-4.4-0.6c-1.4-0.5-2.5-1-3.3-1.7l1.2-2c0.8,0.6,1.8,1.1,3,1.5c1.2,0.4,2.4,0.6,3.7,0.6c1.7,0,3-0.3,3.8-0.8
			c0.8-0.6,1.3-1.3,1.3-2.3c0-0.7-0.2-1.2-0.7-1.6c-0.5-0.4-1-0.7-1.7-0.9c-0.7-0.2-1.6-0.4-2.8-0.6c-1.5-0.3-2.8-0.6-3.7-0.9
			c-0.9-0.3-1.7-0.8-2.4-1.5c-0.6-0.7-1-1.7-1-3c0-1.6,0.7-2.9,2-3.9c1.3-1,3.2-1.5,5.5-1.5c1.2,0,2.4,0.2,3.7,0.5
			c1.2,0.3,2.2,0.7,3,1.3l-1.1,2.1c-1.6-1.1-3.4-1.6-5.6-1.6c-1.6,0-2.9,0.3-3.7,0.9c-0.8,0.6-1.2,1.3-1.2,2.3
			c0,0.7,0.2,1.3,0.7,1.7c0.5,0.4,1.1,0.8,1.8,1c0.7,0.2,1.7,0.4,2.9,0.6c1.5,0.3,2.7,0.6,3.6,0.9c0.9,0.3,1.7,0.8,2.3,1.5
			c0.6,0.7,1,1.7,1,2.9c0,1.7-0.7,3-2.1,4C312.7,34.7,310.8,35.2,308.3,35.2z"/>
	</g>
</g>
</svg>
