<?xml version="1.0" encoding="UTF-8"?>
<!DOCTYPE svg PUBLIC "-//W3C//DTD SVG 1.1//EN" "http://www.w3.org/Graphics/SVG/1.1/DTD/svg11.dtd">
<!-- Creator: CorelDRAW 2021 (64-Bit) -->
<svg xmlns="http://www.w3.org/2000/svg" xml:space="preserve" width="29.8072mm" height="21.9241mm" version="1.1" style="shape-rendering:geometricPrecision; text-rendering:geometricPrecision; image-rendering:optimizeQuality; fill-rule:evenodd; clip-rule:evenodd"
viewBox="0 0 676.47 497.57"
 xmlns:xlink="http://www.w3.org/1999/xlink"
 xmlns:xodm="http://www.corel.com/coreldraw/odm/2003">
 <defs>
  <style type="text/css">
   <![CDATA[
    .fil2 {fill:#BCCBD7;fill-rule:nonzero}
    .fil1 {fill:url(#id1)}
    .fil0 {fill:url(#id2)}
   ]]>
  </style>
    <clipPath id="id0">
     <path d="M643.16 303.61c-18.14,0 -37.03,-16.77 -46.77,-29.15 -22.52,-28.61 -23.29,-69.95 -58.41,-69.95 -4.77,0 -10.31,0.81 -16.61,2.51 -19.28,5.2 -37.03,7.71 -54.79,7.71 -21.19,0 -42.38,-3.5 -65.86,-9.95 -17.18,-4.75 -33.6,-14.26 -51.73,-14.26 -1.15,0 -2.1,0.09 -3.05,0.09 -19.47,1.17 -35.32,14.62 -54.6,16.32 -1.91,0.09 -3.63,0.18 -5.54,0.18 -20.24,0 -40.66,-8.88 -60.33,-11.93 -18.14,-2.69 -37.99,-4.57 -57.08,-4.57 -5.54,0 -10.88,0.18 -16.23,0.54 -18.52,1.17 -36.84,8.07 -55.36,8.07 -4.2,0 -8.21,-0.36 -12.41,-1.17 -8.78,-1.7 -15.46,-4.21 -20.43,-7.44 -40.09,-26.19 40.47,-95.78 67.96,-109.06 0,0 0.19,-0.09 0.19,-0.09 5.92,-2.78 11.64,-5.2 17.75,-7.44 0,-0.09 0,-0.09 0,-0.09l0 0c24.05,-9.06 49.06,-14.35 74.07,-21.35 41.42,-11.57 79.99,-30.85 121.22,-43.05 21.57,-6.37 42.57,-9.51 62.62,-9.51 63.95,0 118.17,32.65 148.52,98.38 0,0.09 0,0.09 0.19,0.18 19.09,40.98 51.54,67.53 78.65,100.36 30.92,42.69 52.11,85.65 19.85,101.79 -3.82,1.97 -7.83,2.87 -11.84,2.87l0 0z"/>
    </clipPath>
  <radialGradient id="id1" gradientUnits="userSpaceOnUse" gradientTransform="matrix(1.63257 -0 -0 -1.63256 -287 -520)" cx="453.96" cy="-197.41" r="251.58" fx="453.96" fy="-197.41">
   <stop offset="0" style="stop-opacity:1; stop-color:#FEFEFE"/>
   <stop offset="0.458824" style="stop-opacity:1; stop-color:#FEFEFE"/>
   <stop offset="1" style="stop-opacity:1; stop-color:#759AC1"/>
  </radialGradient>
  <radialGradient id="id2" gradientUnits="userSpaceOnUse" gradientTransform="matrix(1.24264 -0 -0 -1.24264 -80 1027)" cx="331.47" cy="457.76" r="338.24" fx="331.47" fy="457.76">
   <stop offset="0" style="stop-opacity:1; stop-color:#E7ECF3"/>
   <stop offset="0.368627" style="stop-opacity:1; stop-color:#E7ECF3"/>
   <stop offset="0.639216" style="stop-opacity:1; stop-color:#C7D3E1"/>
   <stop offset="1" style="stop-opacity:1; stop-color:#FEFEFE"/>
  </radialGradient>
 </defs>
 <g id="Layer_x0020_1">
  <metadata id="CorelCorpID_0Corel-Layer"/>
  <g id="_1451608900320">
   <path class="fil0" d="M598.11 497.57c-14.78,-4.87 2.22,-61.74 -16.67,-64.09 -3.77,-9.49 -2.09,-21.05 -7.5,-29.66 -1.15,-1.84 -4.2,-1.47 -5.92,-5.18 -1.3,-2.8 -0.37,-5.56 -0.76,-8.54 -2.47,-18.67 -4.69,-52.78 -18.2,-66.92 -4.54,-4.75 -10.61,-5.24 -16.06,-8.2 -4.55,-2.46 -7.31,-6.68 -11.46,-9.22 -2.75,-1.67 -5.06,-2.39 -7.05,-2.39 -6.87,0 -9.72,8.73 -12.29,17.25 -1.69,5.59 3.55,16.12 -5.3,16.12 -0.18,0 -0.36,-0.01 -0.55,-0.02 -0.62,11.83 0.4,23.93 -0.32,35.75 -6.2,-2.48 -6.25,-17.19 -7.18,-23.36 -2.27,-15.05 -0.1,-36.49 -6.16,-50.41 -3.83,-8.82 -10.04,-6.2 -14.75,-13.92 -9.86,-16.13 -13.59,-16.25 -32.13,-20.77 -10.7,-2.61 -17.03,-9.18 -26.66,-13 -3.29,-1.31 -6.25,-1.75 -9.06,-1.75 -3,0 -5.83,0.5 -8.71,1.02 -2.88,0.51 -5.81,1.02 -9.02,1.02 -1.62,0 -3.32,-0.13 -5.12,-0.46 -11.57,-2.12 -19.89,-13.64 -32.36,-14.78 -0.83,-0.07 -1.63,-0.1 -2.42,-0.1 -10.46,0 -17.51,6.25 -28.01,7.86 -10.22,1.58 -20.33,0.06 -29.87,4.84 -7.55,3.77 -12.88,11.49 -20.85,15.36 -16.32,7.93 -27.01,4.66 -43.58,9.35 -17.44,4.94 -38.65,14.76 -50.85,28.25 -2.31,2.56 -1.43,10.47 -5.08,11.73 -1.07,0.37 -1.9,0.53 -2.57,0.53 -3.7,0 -2.17,-4.87 -5.81,-5.71 -0.85,-0.19 -1.71,-0.28 -2.58,-0.28 -3.54,0 -7.19,1.49 -10.57,3.41 -9.15,5.2 -16.02,14.13 -19.83,23.85 -5.95,15.16 -1.39,30.53 -5.95,45.37 -0.52,-0.22 -1.02,-0.32 -1.5,-0.32 -7.76,0 -9.65,26.73 -12.35,32.81 -2.59,5.83 -4.93,10.4 -6.17,16.68 -1.27,6.46 -0.02,14.47 -2.22,20.66 -8.22,-7.49 -5.34,-27.82 -6.85,-38.17 -1.33,-9.1 1.42,-34.01 -5.96,-39.67 -1.38,0.66 -2.64,0.49 -3.85,0.94 0.5,-2.88 -1.17,-5.13 -1.32,-7.68 -0.77,-0.1 -1.51,-0.15 -2.2,-0.15 -19.98,0 -7.37,41.76 -17.64,54.14 -8.59,-12.3 5.39,-43.07 -7.03,-52.31 -3.27,3.96 -1.85,10.74 -2.13,16.01 -0.11,0.01 -0.22,0.02 -0.33,0.02 -6.61,0 -6.18,-19.9 -6.47,-25.93 -0.66,-13.43 1.72,-32.51 -4.92,-43.4 -8.01,-13.14 -21.68,-21.97 -28.52,-36.04l-0.53 -1.14c-5.87,-13.14 -8,-24.6 -6.43,-38.8 3.84,-34.71 14.31,-72.43 40.09,-97.28 25.5,-24.56 59.55,-44.1 91.35,-59.3 -27.44,13.26 -107.98,82.85 -68.01,109.02 4.92,3.22 11.67,5.78 20.56,7.5 4.09,0.79 8.17,1.12 12.23,1.12 18.62,0 36.99,-6.91 55.37,-8.08 5.33,-0.34 10.79,-0.49 16.32,-0.49 19.02,0 38.89,1.86 57.02,4.6 19.66,2.97 40.18,11.91 60.33,11.91 1.85,0 3.71,-0.08 5.56,-0.24 19.22,-1.7 35.21,-15.11 54.56,-16.27 1.02,-0.06 2.03,-0.09 3.04,-0.09 18.23,0 34.51,9.52 51.82,14.26 23.4,6.4 44.55,9.89 65.79,9.89 17.78,0 35.62,-2.45 54.9,-7.67 6.28,-1.7 11.74,-2.47 16.58,-2.47 35.12,0 35.79,41.3 58.45,69.96 9.73,12.31 28.65,29.08 46.68,29.07 4.06,0 8.07,-0.85 11.93,-2.8 32.1,-16.21 10.97,-59.1 -19.97,-101.79 7.18,8.75 13.96,17.96 19.98,28.01 16.92,28.25 24.71,60.98 20.06,93.71 -3.39,23.89 -11.17,60.51 -37.91,66.36 -28.85,6.3 -17.4,36.68 -28.93,56.41 -0.52,0.88 -3.86,1.27 -5.12,3.67 -0.5,0.95 -0.7,5 -0.95,6.38 -0.8,4.59 -1.23,9.44 -1.97,14.18 -1.47,9.49 1.04,20.74 -2.16,29.84zm-41.7 -398.97c-0.03,-0.06 -0.06,-0.13 -0.09,-0.2 -30.47,-65.71 -84.54,-98.4 -148.57,-98.4 -20.01,0 -40.99,3.2 -62.53,9.58 -41.2,12.18 -79.85,31.46 -121.28,43.04 -24.92,6.97 -49.97,12.29 -74.03,21.33 24.07,-9.04 49.12,-14.36 74.03,-21.33 41.43,-11.59 80.09,-30.86 121.28,-43.04 21.54,-6.38 42.53,-9.58 62.53,-9.58 64.03,0 118.1,32.69 148.57,98.4 0.03,0.07 0.06,0.14 0.09,0.2zm-406.61 -24.61c0.03,-0.02 0.06,-0.02 0.09,-0.04 -0.03,0.02 -0.06,0.02 -0.09,0.04z"/>
   <path class="fil1" d="M635.1 199c-26.99,-32.9 -59.61,-59.4 -78.69,-100.4 7.45,15.67 47.91,57.94 78.69,100.4zm-503.16 -117.43c0.07,-0.02 0.13,-0.06 0.2,-0.09 5.82,-2.78 11.71,-5.25 17.67,-7.48 -5.96,2.23 -11.85,4.71 -17.67,7.48 -0.06,0.03 -0.13,0.06 -0.2,0.09zm17.96 -7.61l0 0 -0 0z"/>
   <g style="clip-path:url(#id0)">
    <image x="18.73" y="-6.16" width="673.49" height="316.41" xlink:href="snowdrift_05_Images\snowdrift_05_ImgID1.png"/>
   </g>
   <path class="fil2" d="M668.86 350.18c-5.44,17.27 -14.75,33.21 -31.62,36.9 -28.85,6.3 -17.4,36.68 -28.93,56.41 -0.52,0.88 -3.86,1.27 -5.12,3.67 -0.5,0.95 -0.7,5 -0.95,6.38 -0.8,4.59 -1.23,9.44 -1.97,14.17 -1.47,9.5 1.03,20.74 -2.16,29.85 -14.78,-4.87 2.22,-61.74 -16.67,-64.09 -3.77,-9.48 -2.09,-21.05 -7.5,-29.66 -1.15,-1.84 -4.2,-1.47 -5.92,-5.18 -1.3,-2.8 -0.37,-5.56 -0.77,-8.54 -2.46,-18.67 -4.68,-52.78 -18.19,-66.92 -4.54,-4.75 -10.61,-5.24 -16.06,-8.2 -4.55,-2.46 -7.31,-6.68 -11.46,-9.22 -12.24,-7.45 -16.02,3.88 -19.34,14.85 -1.72,5.7 3.77,16.54 -5.84,16.11 -0.63,11.83 0.39,23.93 -0.33,35.75 -6.2,-2.48 -6.25,-17.19 -7.18,-23.36 -2.27,-15.05 -0.1,-36.49 -6.16,-50.41 -3.83,-8.82 -10.04,-6.2 -14.75,-13.92 -9.86,-16.13 -13.59,-16.25 -32.13,-20.77 -10.7,-2.62 -17.03,-9.18 -26.66,-13 -12.12,-4.82 -19.71,2.06 -31.91,-0.18 -11.57,-2.12 -19.89,-13.64 -32.36,-14.78 -11.84,-1.07 -19.14,6.02 -30.43,7.76 -10.22,1.58 -20.33,0.06 -29.87,4.84 -7.55,3.77 -12.88,11.49 -20.85,15.36 -16.32,7.93 -27.01,4.66 -43.58,9.35 -17.44,4.94 -38.65,14.76 -50.85,28.25 -2.31,2.56 -1.43,10.47 -5.08,11.73 -6.98,2.42 -4.09,-4.2 -8.37,-5.18 -4.33,-0.98 -8.95,0.74 -13.14,3.13 -9.15,5.2 -16.02,14.13 -19.83,23.85 -5.95,15.16 -1.39,30.53 -5.95,45.37 -9.03,-3.68 -10.98,26.03 -13.85,32.49 -2.59,5.83 -4.93,10.4 -6.17,16.68 -1.27,6.46 -0.02,14.47 -2.22,20.66 -8.22,-7.49 -5.34,-27.82 -6.85,-38.17 -1.33,-9.1 1.42,-34.01 -5.97,-39.67 -1.38,0.66 -2.64,0.49 -3.85,0.94 0.5,-2.88 -1.17,-5.13 -1.32,-7.68 -23.09,-3.09 -9.22,41.18 -19.84,53.99 -8.59,-12.3 5.39,-43.07 -7.03,-52.31 -3.27,3.96 -1.85,10.74 -2.13,16.01 -6.95,0.67 -6.5,-19.78 -6.8,-25.92 -0.66,-13.43 1.72,-32.51 -4.92,-43.4 -4.48,-7.35 -11.28,-12.99 -16.09,-19.82 40.47,-1.58 12.12,62.4 39.11,75.35 1.99,-5.07 2.63,-10.22 4.64,-15.51 1.27,0.62 4.68,4.59 5.11,4.7 3.09,0.8 6.49,-0.34 9.47,1.18 2.02,1.04 12.85,8.7 13.8,10.13 6.96,10.42 -3.38,28.21 4.2,37.81 3.97,-5.28 4.44,-13.64 5.25,-20.21 1.14,-9.18 4.51,-10.74 8.17,-18.18 11.52,-23.41 2.06,-46.67 26.23,-64.68 4.14,-3.09 15.46,-11.9 20.33,-11.99 4,9.53 16.7,-7.5 24.54,-10.96 12.85,-5.67 24.95,-13.59 38.78,-17.01 16.41,-4.06 32.92,-6.65 49.18,-11.42 27.74,-8.13 52.68,-28.34 82.83,-24.23 8.78,1.19 9.24,4.98 15.63,9.7 11.59,8.56 25.39,-1.06 39.48,2.18 12.01,2.75 26.1,8.77 37.48,13.35 6.83,2.75 11.45,8.54 18.02,11.77 6.61,3.25 13.9,3.03 19.35,8.45 12.07,12.02 10.6,30.82 10.61,46.1 5.2,-6.92 3.75,-15.35 11.57,-20.74 23.54,-16.23 55.19,22.03 57.83,42.83 1.59,12.62 6.5,24.88 9.94,36.86 3.2,11.14 11.23,19.1 14.68,30.01 2.31,7.25 7.22,11.12 9.82,17.77 2.19,5.59 0.52,13.87 0.94,20.01 2.51,-4.54 3.5,-9.04 4.8,-13.67 1.58,-5.6 3.29,-8 5.51,-13 6.45,-14.53 3.92,-30.33 19.1,-37.87 7.85,-3.91 18.28,-4.59 24.78,-10.95 3.91,-3.83 6.76,-8.17 9.87,-12.5 2.31,-3.22 4.76,-6.45 7.9,-9.45z"/>
  </g>
 </g>
</svg>
