<?xml version="1.0" encoding="UTF-8"?>
<!DOCTYPE svg PUBLIC "-//W3C//DTD SVG 1.1//EN" "http://www.w3.org/Graphics/SVG/1.1/DTD/svg11.dtd">
<!-- Creator: CorelDRAW 2021 (64-Bit) -->
<svg xmlns="http://www.w3.org/2000/svg" xml:space="preserve" width="53.8574mm" height="18.7736mm" version="1.1" style="shape-rendering:geometricPrecision; text-rendering:geometricPrecision; image-rendering:optimizeQuality; fill-rule:evenodd; clip-rule:evenodd"
viewBox="0 0 3235 1127.66"
 xmlns:xlink="http://www.w3.org/1999/xlink"
 xmlns:xodm="http://www.corel.com/coreldraw/odm/2003">
 <defs>
  <style type="text/css">
   <![CDATA[
    .fil1 {fill:#BCCBD7;fill-rule:nonzero}
    .fil0 {fill:url(#id2)}
   ]]>
  </style>
    <clipPath id="id0">
     <path d="M486.55 615.08c-74.43,0 -144.51,-38.58 -217.37,-54.13 -37.61,-8.09 -116.8,-14.81 -139.37,-52.64 -34.45,-58.25 40.39,-85.37 83.14,-98.81 31.68,-10.21 64.54,-20.66 97.01,-44.18l12.67 -9.09c39.6,-28.87 84.73,-61.72 131.45,-78.15 22.17,-7.59 43.95,-11.2 68.9,-11.2 18.61,0 37.22,1.87 56.62,3.98 21.77,2.24 43.94,4.61 68.49,4.61 0,0 0.4,0 0.4,0l3.56 -0.13c31.28,-0.25 59.78,-9.08 87.11,-17.67 14.64,-4.6 28.9,-8.84 43.15,-11.95 93.05,-20.16 199.55,-30.74 306.85,-30.74 33.66,0 67.71,0.99 100.97,3.11l43.55 2.73c45.93,2.87 119.57,5.6 165.49,29.25 38.01,19.79 56.62,54.01 23.36,114.99 -58.59,107.78 -199.55,65.59 -274.77,138.51 -41.97,40.69 -45.54,84.75 -114.43,88.24 -3.96,0.25 -8.31,0.37 -12.67,0.37 -70.48,0 -146.5,-28.38 -215.78,-38.58 -16.24,-2.49 -30.89,-3.48 -45.14,-3.48 -84.33,0 -138.57,38.08 -226.47,59.49 -7.92,1.86 -15.44,3.11 -22.96,4.1 -7.92,0.87 -15.83,1.37 -23.76,1.37l0 0z"/>
    </clipPath>
    <clipPath id="id1">
     <path d="M2528.25 593.33c-61.48,0 -121.42,-11.6 -181.87,-23.38 -59.93,-11.78 -120.38,-23.56 -182.38,-23.56 -2.07,0 -4.65,0 -7.23,0.17 -4.13,0 -8.27,0 -12.91,0 -147.76,0 -347.71,-36.7 -468.09,-123.76 -37.2,-26.97 -60.97,-68.62 -104.36,-86.37 -39.79,-16.04 -105.4,-4.95 -114.19,-62.82 -11.88,-75.27 169.98,-133.66 221.13,-151.58 90.41,-31.75 197.36,-44.89 300.69,-57.36 28.93,-3.59 56.83,-7 84.21,-10.93 109.02,-15.19 253.68,-32.6 401.96,-32.6 224.74,0 402.99,40.12 545.07,122.56 100.75,58.72 226.82,178.38 146.73,300.94 -36.68,56.33 -85.25,69.81 -137.95,69.81 -24.8,0 -50.11,-2.9 -75.43,-5.8 -25.83,-2.9 -51.15,-5.8 -76.46,-5.8 -1.03,0 -2.58,0 -3.62,0 -114.7,1.53 -201.5,85.52 -316.71,90.12 -6.2,0.34 -12.4,0.34 -18.6,0.34l0 0z"/>
    </clipPath>
  <radialGradient id="id2" gradientUnits="userSpaceOnUse" gradientTransform="matrix(5.37392 -0 -0 -5.54645 -6509 -50936)" cx="1488.1" cy="-7780.75" r="1617.5" fx="1488.1" fy="-7780.75">
   <stop offset="0" style="stop-opacity:1; stop-color:#FEFEFE"/>
   <stop offset="0.819608" style="stop-opacity:1; stop-color:#FEFEFE"/>
   <stop offset="0.94902" style="stop-opacity:1; stop-color:#C7D3E1"/>
   <stop offset="1" style="stop-opacity:1; stop-color:#E7ECF3"/>
  </radialGradient>
 </defs>
 <g id="Layer_x0020_1">
  <metadata id="CorelCorpID_0Corel-Layer"/>
  <g id="_1415208463280">
   <path class="fil0" d="M488.58 1127.64c-2.16,0 -4.11,-3.62 -5.47,-13.08 -5.34,-37.36 -10.09,-75.16 -14.81,-112.6 -3.52,-27.89 -2.82,-64.2 -20.07,-87.94 -40.41,-55.58 -125.02,-32.93 -183.06,-54.54 -37.7,-14.05 -93.6,-11.59 -121.38,-37.08 -31.65,-29.07 -56.95,-59.95 -87.74,-89.86 -31.28,-30.41 -48.75,-56.58 -54.94,-104.91 -10.34,-80.84 53.52,-156.81 116.12,-199.25 60.49,-41.07 121.99,-37.99 180.45,-80.27 44.16,-31.93 94.74,-70.84 149.39,-89.97 27.13,-9.49 51.83,-12.48 75.88,-12.48 20.36,0 40.28,2.14 60.82,4.28 20.55,2.14 41.72,4.28 64.61,4.28 1.1,0 2.2,0 3.3,-0.02 43.88,-0.38 83.45,-20.04 125.98,-29.2 99.85,-21.47 207.05,-31.19 311.6,-31.19 34.48,0 68.67,1.06 102.22,3.09 60.26,3.66 120.63,8.16 182.11,10.19 3.07,0.1 6.14,0.14 9.17,0.14 113.01,0 186.62,-69.63 288.46,-105.23 118.85,-41.53 264.62,-51.83 389.23,-69.18 127.5,-17.74 266.17,-32.82 404.77,-32.82 195.86,0 391.59,30.11 555.6,125.42 262.06,152.31 308.81,419.79 -1.84,637.14 -25.32,17.71 -58.7,25.32 -81.69,46.13 -16.13,14.6 -27.57,42.19 -32.8,62.79 -2.56,10.15 -7.35,37.91 -21.97,37.91 -1.12,0 -2.29,-0.15 -3.52,-0.49 -15.26,-4.26 -16.19,-37.64 -20.07,-49.31 -5.72,-17.29 -21.36,-31.85 -41.03,-31.85 -0.13,0 -0.25,0 -0.38,0 -31.91,0.32 -32.97,39.61 -53.99,55.99 -17.65,13.75 -34.96,7.52 -46.55,30.05 -13.99,27.17 -21.7,55.52 -26.74,85.52 -4.13,24.77 -5.36,49.86 -8.12,74.8 -0.93,8.56 -1.78,41.28 -12.57,41.28 -1.35,0 -2.86,-0.5 -4.53,-1.65 -15.56,-10.53 -16.38,-61.71 -18.76,-78.21 -5.61,-38.88 -10.89,-79.97 -24.49,-117.05 -3.98,-10.9 -13.11,-33.91 -26.27,-33.91 -3.66,0 -7.65,1.8 -11.93,6.14 -7.44,7.59 -7.65,27.55 -21.43,29.73 -0.8,0.13 -1.54,0.19 -2.29,0.19 -12.37,0 -13.37,-18.01 -17.08,-27.4 -23.97,-60.54 -112.29,-100.53 -171.34,-113.96 -40.13,-9.14 -82.07,-12.67 -124.44,-12.67 -65.18,0 -131.34,8.39 -193.3,17.78 -7.63,1.17 -15.23,1.68 -22.84,1.68 -62.17,0 -123.9,-34.56 -186.17,-36.98 -11.93,-0.47 -23.9,-0.68 -35.91,-0.68 -72.56,0 -146.41,7.59 -218.3,12.06 -47.52,2.93 -100.02,-1.02 -126.19,45.94 -5.89,10.58 -10.3,18.39 -21.61,22.67 -13.29,5.05 -15.34,3.75 -23.2,16.55 -10.76,17.55 -10.61,39.69 -12.08,59.54 -1.5,20.05 -7.84,38.06 -11.48,57.68 -1.59,8.64 -0.55,33.29 -12.33,33.82 -0.02,0 -0.04,0 -0.06,0 -7.38,0 -11.74,-67.34 -12.95,-74.84 -9.75,-60.35 -48.21,-126.78 -115.97,-126.78 -1.59,0 -3.2,0.04 -4.81,0.13 -39.37,1.8 -97.77,20.04 -125.81,49.2 -8.05,8.39 -14.28,25.73 -26.83,28.38 -1.46,0.29 -2.82,0.44 -4.05,0.44 -9.53,0 -12.73,-8.56 -18.49,-15.79 -7.76,-9.73 -15.53,-14.07 -26.68,-19.5 -18.48,-9 -36.05,-11.59 -55.26,-11.59 -5.57,0 -11.3,0.22 -17.21,0.55 -2.35,0.15 -4.7,0.19 -7.08,0.19 -4.81,0 -9.66,-0.21 -14.54,-0.44 -4.88,-0.21 -9.72,-0.43 -14.56,-0.43 -11.02,0 -21.78,1.15 -31.7,6.06 -24.05,11.93 -33.02,27.8 -47.64,48.7 -5.44,7.8 -11,10.97 -16.76,10.97 -7.14,0 -14.62,-4.9 -22.65,-11.93 -21.7,-19.03 -35.58,-41.6 -62.24,-41.6 -5.87,0 -12.37,1.08 -19.7,3.56 -36.21,12.22 -30.73,47.53 -52.38,71.35 -16.34,17.95 -41.3,22.46 -57.19,41.97 -13.38,16.45 -10.6,34.73 -17.89,53.27 -3.39,8.67 -8.27,13.2 -12.93,13.2 -4.6,0 -8.99,-4.38 -11.63,-13.54 -5.89,-20.36 2.91,-36.74 -19.49,-47.82 -4.81,-2.37 -9,-3.5 -12.73,-3.5 -9.86,0 -16.24,7.88 -21.19,20.76 -10.39,26.99 -11.83,52.15 -17.78,79.61 -4.07,18.84 -12.12,35.45 -17.5,53.76 -2.56,8.77 -6.12,16.63 -9.28,16.63zm34.37 -860.8c-24.98,0 -46.87,3.58 -68.89,11.29 -46.68,16.36 -91.79,49.18 -131.59,78.15l-12.38 8.99c-32.59,23.56 -65.5,34.07 -97.33,44.2 -42.44,13.52 -117.2,40.56 -82.81,98.79 22.33,37.82 101.52,44.56 139.3,52.66 72.94,15.57 142.97,54.11 217.26,54.11 7.88,0 15.8,-0.42 23.82,-1.38 7.56,-0.89 15.19,-2.22 22.86,-4.09 88.04,-21.42 142.29,-59.48 226.56,-59.48 14.09,0 29.01,1.08 45.07,3.45 69.5,10.3 145.3,38.59 215.97,38.59 4.22,0 8.42,-0.08 12.61,-0.29 68.66,-3.48 72.47,-47.57 114.43,-88.32 74.97,-72.81 216.05,-30.62 274.69,-138.46 33.18,-61 14.6,-95.25 -23.48,-114.95 -45.66,-23.62 -119.41,-26.36 -165.52,-29.32l-43.35 -2.73c-33.35,-2.04 -67.32,-3.05 -100.95,-3.05 -107.48,0 -213.68,10.61 -307.11,30.72 -14.26,3.07 -28.16,7.39 -42.89,11.97 -27.55,8.56 -56.01,17.42 -87.37,17.7l-3.52 0.02c-0.04,0 -0.1,0 -0.14,0 -24.6,0 -46.88,-2.33 -68.43,-4.58 -19.62,-2.05 -38.16,-3.98 -56.83,-3.98zm1641.27 279.6c61.81,0 122.1,11.72 182.29,23.46 60.2,11.74 120.34,23.48 181.81,23.48 6.14,0 12.31,-0.13 18.5,-0.38 115.4,-4.6 202.17,-88.68 316.58,-90.11 1.29,-0.02 2.58,-0.02 3.87,-0.02 25.07,0 50.73,2.9 76.27,5.83 25.51,2.9 50.88,5.83 75.35,5.83 52.79,0 101.33,-13.56 138.06,-69.86 79.91,-122.54 -45.92,-242.31 -146.78,-300.92 -141.91,-82.47 -320.16,-122.56 -544.94,-122.56 -148.39,0 -292.7,17.44 -401.85,32.62 -27.29,3.81 -55.58,7.27 -84.4,10.81 -103.24,12.61 -209.99,25.68 -300.77,57.41 -51.13,17.86 -232.79,76.3 -221.03,151.59 9.07,57.93 74.61,46.85 114.02,62.81 43.71,17.69 67.55,59.42 104.8,86.39 120.38,87.1 319.95,123.8 467.96,123.8 4.41,0 8.75,-0.04 13.06,-0.08 2.39,-0.04 4.81,-0.07 7.2,-0.07z"/>
   <g style="clip-path:url(#id0)">
    <image x="79.93" y="196.81" width="1396.84" height="439.06" xlink:href="snowdrift_02_Images\snowdrift_02_ImgID1.png"/>
   </g>
   <g style="clip-path:url(#id1)">
    <image x="1433.97" y="1.86" width="1822.76" height="602.22" xlink:href="snowdrift_02_Images\snowdrift_02_ImgID2.png"/>
   </g>
   <path class="fil1" d="M3135.64 641.1c-24.94,16.34 -57.45,32.69 -76.16,55.92 -19.52,24.22 -39.54,43.78 -67.53,58.87 -26.21,14.13 -62.83,29.26 -81.96,52.74 -10.54,12.91 -21.32,55.84 -44.24,34.03 -9.33,-8.86 -12.61,-21.97 -23.52,-29.86 -20.26,-14.62 -47.97,-12.33 -63.76,7.67 -11.85,15 -19.07,30.94 -37.06,40.56 -15.34,8.22 -30.65,13.31 -40.18,28.68 -10.79,17.37 -15.91,40.47 -19.39,60.39 -2.9,16.51 -11.76,92.83 -29.11,39.48 -10.47,-32.17 -16.63,-66.01 -25.07,-98.77 -1.95,-7.59 -2.41,-23.41 -9.85,-28.12 -10.51,-6.64 -28.29,5.04 -37.97,8.3 -30.57,10.26 -57.09,-23.2 -73.97,-43.57 -24.22,-29.2 -49.75,-47.78 -86.41,-60.6 -54.35,-19.03 -112.31,-8.63 -168.32,-9.79 -64.65,-1.33 -128.49,-4.79 -192.09,-17.55 -79.53,-15.95 -160.83,-46.59 -242.16,-44.61 -22.34,0.53 -44.08,6.21 -66.31,7.86 -18.77,1.42 -37.25,0.85 -55.75,4.91 -32.66,7.23 -60.75,23.23 -92.05,33.48 -27.84,9.11 -59.93,18.61 -88.83,22.95 -15.41,2.33 -25.98,4.26 -37.85,15 -10.64,9.57 -17.78,18.84 -31.32,24.58 -20.75,8.77 -48.38,29.85 -49.69,54.61 -0.5,9.64 4.01,33.99 -5.15,40.89 -9.09,6.87 -13.88,-15.27 -15.55,-20.68 -12.44,-40 -43.4,-78 -86.03,-87.01 -34.24,-7.27 -60.41,-5.51 -93.73,4.24 -30.26,8.84 -60.24,21 -86.58,38.35 -8.24,5.42 -14.13,7.27 -23.9,5.55 -14.49,-2.54 -25.17,-12.27 -39.01,-16.16 -12.99,-3.67 -26.59,-5.77 -40.05,-6.59 -28.1,-1.76 -56.77,-2.91 -84.36,3.72 -22.9,5.51 -46.98,10.39 -64.93,27.17 -5.51,5.17 -7.05,10.64 -16.23,10.04 -6.44,-0.4 -9.56,-4.09 -15.19,-6.74 -10.19,-4.76 -21.07,-7.95 -31.47,-12.18 -10.47,-4.26 -20.9,-9.24 -32.36,-10.07 -11.36,-0.8 -22.44,1.87 -32.65,6.7 -16.66,7.9 -34.96,21.32 -44.73,37.17 -9.11,14.75 -16.09,33.9 -31.34,43.52 -13.97,8.77 -22.42,22.42 -30.87,36.09 -3.92,6.35 -15.83,34.96 -26.38,22.39 -9.72,-11.57 -11.76,-26.93 -29.77,-28.92 -35.58,-3.92 -45.73,27.29 -51.93,55.8 -1.99,9.17 -5.91,17.4 -9.79,26.06 -1.78,3.94 -5.63,17.1 -11.87,15.62 -8.35,-1.99 -7.5,-25.37 -7.73,-31.43 -0.22,-6.06 0.64,-11.91 0.68,-17.84 0.06,-9.54 -3.41,-20.13 -5.83,-29.29 -5.44,-20.49 -9.41,-42.33 -18.85,-61.45 -25.3,-51.15 -92.86,-50.07 -141.07,-45.94 -34.39,2.94 -66.15,-6.72 -99.13,-14.12 -21.06,-4.7 -41.82,-11.44 -60.28,-22.89 -9.26,-5.72 -16.55,-12.88 -24.84,-19.68 -4.49,-3.71 -21.68,-9.41 -23.67,-12.29 8.67,12.5 22.01,23.69 33.31,34.07 27.78,25.49 83.68,23.04 121.38,37.08 58.04,21.61 142.63,-1.04 183.06,54.54 17.25,23.74 16.55,60.05 20.07,87.94 4.73,37.44 9.47,75.24 14.81,112.6 3.33,23.37 10.42,11.17 14.75,-3.56 5.38,-18.31 13.44,-34.92 17.5,-53.76 5.95,-27.46 7.38,-52.62 17.78,-79.61 6.82,-17.71 16.31,-25.98 33.93,-17.27 22.4,11.08 13.6,27.46 19.49,47.82 5.34,18.5 17.82,17.5 24.56,0.34 7.27,-18.54 4.51,-36.85 17.89,-53.27 15.89,-19.52 40.85,-24.03 57.19,-41.97 21.65,-23.82 16.17,-59.12 52.38,-71.35 40.6,-13.69 55.47,14.83 81.94,38.03 14.51,12.73 27.2,18.39 39.41,0.96 14.62,-20.89 23.59,-36.77 47.64,-48.7 20.74,-10.3 45.26,-4.07 67.87,-5.38 26.32,-1.5 48.63,-0.59 72.47,11.04 11.15,5.42 18.92,9.77 26.68,19.5 6.51,8.16 9.74,18.03 22.54,15.34 12.55,-2.65 18.78,-19.98 26.83,-28.38 28.04,-29.16 86.44,-47.4 125.81,-49.2 70.75,-3.23 110.8,64.88 120.78,126.65 1.21,7.52 5.59,75.18 13.01,74.84 11.78,-0.53 10.75,-25.17 12.36,-33.82 3.62,-19.62 9.96,-37.63 11.46,-57.68 1.47,-19.85 1.32,-42 12.08,-59.54 7.86,-12.8 9.92,-11.5 23.2,-16.55 11.32,-4.28 15.73,-12.1 21.61,-22.67 26.17,-46.95 78.66,-43.01 126.19,-45.96 83.81,-5.17 170.25,-14.63 254.22,-11.36 69.9,2.71 139.09,45.91 209.02,35.3 102.24,-15.51 215.91,-28.29 317.74,-5.11 59.06,13.43 147.38,53.42 171.34,113.96 3.94,9.94 4.81,29.52 19.37,27.21 13.77,-2.19 13.98,-22.15 21.43,-29.73 19.58,-19.92 33.1,13.82 38.2,27.76 13.6,37.08 18.88,78.17 24.49,117.05 2.38,16.51 3.2,67.68 18.76,78.21 15.11,10.24 16.04,-30 17.09,-39.63 2.76,-24.94 3.99,-50.03 8.12,-74.8 5.02,-30 12.73,-58.35 26.74,-85.52 11.59,-22.52 28.9,-16.3 46.55,-30.05 21.02,-16.38 22.08,-55.67 53.99,-55.99 19.85,-0.17 35.64,14.45 41.4,31.85 3.88,11.67 4.81,45.05 20.07,49.31 17.4,4.83 22.74,-26.49 25.49,-37.42 5.23,-20.6 16.67,-48.19 32.8,-62.79 22.99,-20.81 56.37,-28.42 81.69,-46.13 66.22,-46.34 116.05,-94.95 151.19,-144.24 -11.27,7.61 -22.8,15.11 -34.54,22.78z"/>
  </g>
 </g>
</svg>
