<?xml version="1.0" encoding="UTF-8"?>
<!DOCTYPE svg PUBLIC "-//W3C//DTD SVG 1.1//EN" "http://www.w3.org/Graphics/SVG/1.1/DTD/svg11.dtd">
<!-- Creator: CorelDRAW 2021 (64-Bit) -->
<svg xmlns="http://www.w3.org/2000/svg" xml:space="preserve" width="28.5623mm" height="20.7846mm" version="1.1" style="shape-rendering:geometricPrecision; text-rendering:geometricPrecision; image-rendering:optimizeQuality; fill-rule:evenodd; clip-rule:evenodd"
viewBox="0 0 919.11 668.83"
 xmlns:xlink="http://www.w3.org/1999/xlink"
 xmlns:xodm="http://www.corel.com/coreldraw/odm/2003">
 <defs>
  <style type="text/css">
   <![CDATA[
    .fil2 {fill:#C7D3E1;fill-rule:nonzero}
    .fil3 {fill:#C4D0E0;fill-rule:nonzero}
    .fil0 {fill:url(#id1)}
    .fil1 {fill:url(#id2)}
   ]]>
  </style>
    <clipPath id="id0">
     <path d="M427.46 456.07c-27.82,0 -56.97,-10.12 -82.37,-16.32 -17.39,-4.32 -33.7,-5.94 -50.02,-5.94 -18.99,0 -37.71,2.16 -57.77,5.13 -17.65,2.56 -37.18,3.91 -57.23,3.91 -76.23,0 -160.74,-20.77 -177.32,-80.26 -5.89,-28.6 -1.61,-60.43 9.36,-84.71 0,0 0,0 0,0 0,-0.14 0,-0.27 0.27,-0.27 0,0 0,0 0,-0.14 0,0 0,-0.14 0,-0.14 0,0 0,-0.14 0,-0.14 0,0 0,-0.14 0.27,-0.14 0,0 0,-0.14 0,-0.14 0,-0.14 0,-0.14 0,-0.27 2.67,-5.39 5.35,-10.79 8.56,-16.19 18.45,-32.51 46,-65.15 74.35,-86.86 29.95,-22.93 60.17,-38.58 93.88,-53.55 3.48,-1.48 6.95,-2.97 10.16,-4.45l0 0c26.48,-11.33 51.62,-29.95 76.76,-48.96 0.27,-0.41 0.8,-0.67 1.07,-0.94l0 0c42.79,-32.51 85.05,-65.69 132.39,-65.69 11.77,0 23.54,2.02 35.84,6.47 0.27,0 0.27,0.14 0.53,0.14 0,0 0,0 0,0 1.07,0.41 1.87,0.68 2.67,1.08 0,0 0.27,0 0.27,0.14 4.28,1.62 8.56,3.64 13.11,5.94 0,0.13 0.27,0.13 0.27,0.27 1.61,0.81 2.94,1.62 4.55,2.56 0.8,0.54 1.87,1.08 2.67,1.62 0.53,0.27 1.07,0.54 1.61,0.94 39.32,24.55 61.78,52.47 109.66,61.51 1.61,0.27 2.94,0.54 4.55,0.81 49.75,8.5 101.63,3.91 148.71,25.63 17.92,8.36 34.77,18.21 51.08,29 3.48,2.29 6.68,4.45 10.16,6.74 40.65,27.52 85.05,60.03 109.39,103.86l0 0c0,0 0,0.14 0,0.14 0,0.14 0.27,0.14 0.27,0.14 0,0 0,0.14 0,0.14 0,0 0,0 0,0.13 0,0 0,0 0,0 0,0.14 0,0.14 0.27,0.14 0,0.14 0,0.14 0,0.14 0,0.14 0,0.27 0.27,0.54 0,0 0,0 0,0 0,0 0,0.14 0,0.14 0,0 0,0 0,0 16.85,31.83 18.72,84.44 0.27,119.64 0,0.27 0,0.4 0,0.54 -2.14,4.05 -4.55,7.96 -7.49,11.47 -20.59,22.93 -67.13,25.09 -107.52,25.09 -4.81,0 -9.36,0 -13.91,0 -4.55,-0.14 -9.09,-0.14 -13.11,-0.14 -2.67,0 -5.08,0 -7.49,0 -31.56,0.41 -56.97,12.81 -85.32,25.36 -16.85,7.69 -34.77,9.85 -52.96,9.85 -13.37,0 -26.75,-1.21 -40.38,-2.43 -13.64,-1.08 -27.01,-2.29 -40.65,-2.29 -11.5,0 -23.27,0.81 -34.77,3.51 -19.26,4.32 -36.37,11.33 -56.17,15.38 -6.15,1.35 -12.3,1.89 -18.72,1.89l0 0z"/>
    </clipPath>
  <radialGradient id="id1" gradientUnits="userSpaceOnUse" gradientTransform="matrix(2.16146 -0 -0 -2.16146 -555 -817)" cx="477.93" cy="-258.52" r="459.55" fx="477.93" fy="-258.52">
   <stop offset="0" style="stop-opacity:1; stop-color:#FEFEFE"/>
   <stop offset="0.129412" style="stop-opacity:1; stop-color:#FEFEFE"/>
   <stop offset="0.721569" style="stop-opacity:1; stop-color:#C7D3E1"/>
   <stop offset="1" style="stop-opacity:1; stop-color:#E7ECF3"/>
  </radialGradient>
  <radialGradient id="id2" gradientUnits="userSpaceOnUse" gradientTransform="matrix(1.90956 -0 -0 -1.90958 -409 -1006)" cx="450.06" cy="-345.66" r="446.85" fx="450.06" fy="-345.66">
   <stop offset="0" style="stop-opacity:1; stop-color:#FEFEFE"/>
   <stop offset="0.380392" style="stop-opacity:1; stop-color:#FEFEFE"/>
   <stop offset="0.94902" style="stop-opacity:1; stop-color:#759AC1"/>
   <stop offset="1" style="stop-opacity:1; stop-color:#759AC1"/>
  </radialGradient>
 </defs>
 <g id="Layer_x0020_1">
  <metadata id="CorelCorpID_0Corel-Layer"/>
  <g id="_1451618648496">
   <path class="fil0" d="M784 668.83c-16.33,-10.44 -13,-55.74 -15.56,-73.09 -0.99,-6.69 -0.52,-30.52 -10.24,-31.36 -0.19,-0.02 -0.39,-0.04 -0.58,-0.04 -9.1,0 -6.22,19.82 -10.19,26.26 -17.59,-16.12 -7.2,-50.06 -21.87,-68.49 -4.95,-6.22 -6.11,-3.5 -12.69,-6.11 -4.07,-1.62 -7.91,-4.45 -11.45,-5.94 -3.59,-1.5 -7.28,-2.07 -11,-2.07 -5.39,0 -10.86,1.17 -16.32,2.35 -5.46,1.17 -10.9,2.34 -16.2,2.34 -0.98,0 -1.95,-0.04 -2.92,-0.13 -12.18,-1.09 -21.51,-9.38 -32.95,-11.49 -0.82,-0.15 -1.73,-0.22 -2.7,-0.22 -8.09,0 -20.61,4.92 -26.38,8.77 -8.87,5.91 0.65,20.34 -7.25,24.57 -0.71,0.38 -1.38,0.56 -2,0.56 -6.46,0 -7.58,-19.41 -8.87,-24.03 -1.38,-4.97 -2.29,-7.15 -6.38,-9.99 -3.93,-2.73 -4.96,-0.49 -6.7,-5.71 -1.42,-4.24 1.57,-8.73 -3.11,-11.91 -1.77,-1.2 -3.3,-1.75 -4.63,-1.75 -11.9,0 -6.86,44.06 -6.8,49.51 0.08,7.72 4.51,39.81 -6.4,39.81 -1.51,0 -3.31,-0.62 -5.47,-2.01 -13.09,-8.42 -5.67,-41.34 -15.36,-54.47 -5.78,-7.84 -14.02,-11.17 -22.56,-11.17 -5.86,0 -11.86,1.58 -17.28,4.36 -6.88,3.52 -8.91,6.23 -16.94,8.61 -7.08,2.1 -12.37,1.03 -18.76,6 -7.66,5.96 -6.42,18.48 -16.22,24.02 -8.18,4.62 -15.09,5.21 -20.9,5.21 -0.98,0 -1.9,-0.02 -2.82,-0.03 -0.92,-0.02 -1.79,-0.04 -2.65,-0.04 -9.02,0 -14.72,1.83 -17.9,24.86 -3.02,21.87 3.84,43.98 -2.99,65.51 -34.15,-1.7 -19.65,-91.41 -35.49,-113.85 -12.03,-17.04 -31.34,-9.29 -49.76,-13.79 -7.42,-1.81 -15.25,-3.07 -22.67,-3.07 -17.04,0 -32.02,6.57 -35.41,28.01 -0.88,5.59 -1.67,9.62 -6.32,12.34 -10,-7.69 -17.33,-10.96 -22.8,-10.96 -14.33,0 -15.85,22.44 -19,46.73 -0.6,4.6 -7.22,55.01 -10.72,55.01 -0.1,0 -0.21,-0.05 -0.31,-0.14 -13.2,-12.13 -13.64,-46.28 -17.05,-62.63 -1.43,-6.83 0.06,-24.43 -4.32,-29.65 -2.21,-2.64 -4.94,-3.72 -7.75,-3.72 -5.76,0 -11.85,4.55 -14.54,9.75 -5.99,11.57 -2.26,25.42 -7.38,37.1 -8.81,-0.16 -10.75,-16.97 -11.93,-22.95 -3.94,-20.05 -7.71,-44.07 -3.89,-63.95 3.69,-19.2 6.95,-40.17 -7.37,-56.11 -15.46,-17.22 -41.25,-16.83 -60.59,-27.31 -49.13,-26.63 -52.39,-98.97 -31.52,-144.5 -11.12,24.29 -15.29,56.19 -9.39,84.73 16.69,59.46 100.96,80.31 177.39,80.31 20.02,0 39.48,-1.43 57.07,-3.96 20.15,-2.91 38.98,-5.09 57.84,-5.09 16.38,0 32.77,1.64 50.07,5.87 25.35,6.2 54.58,16.32 82.23,16.32 6.41,0 12.75,-0.55 18.93,-1.82 19.77,-4.05 36.87,-11.03 56.11,-15.44 11.44,-2.62 23.09,-3.53 34.82,-3.53 13.46,0 27.03,1.2 40.57,2.4 13.53,1.2 27.02,2.4 40.31,2.4 18.22,0 36.05,-2.25 53.1,-9.85 28.33,-12.63 53.58,-24.96 85.25,-25.34 2.37,-0.03 4.81,-0.05 7.32,-0.05 4.21,0 8.6,0.04 13.15,0.07 4.54,0.03 9.23,0.05 14,0.05 40.36,0 86.93,-2.19 107.61,-25.09 -2.44,3.18 -5.11,6.12 -8.02,8.78 -17.4,15.94 -37.14,17.59 -55.84,29.13 -14.37,8.87 -10.02,23.78 -10.37,38.56 -0.17,7.22 0.18,15.34 -2.33,22.23 -2.05,5.63 -7.55,9.73 -8.96,15.44 -5.06,20.56 11.6,41.48 0.92,61.75 -10.27,19.5 -23.82,28.89 -25.11,52.94 -0.82,15.24 5.9,48.54 -4.84,60.13zm121.86 -300.44c0.07,-0.15 0.12,-0.31 0.19,-0.47 18.44,-35.26 16.4,-87.83 -0.35,-119.7 16.84,31.99 18.84,84.89 0.16,120.16zm-893.69 -90.55c0.04,-0.09 0.07,-0.17 0.12,-0.25 -0.05,0.08 -0.08,0.17 -0.12,0.25zm0.14 -0.3c0.03,-0.08 0.07,-0.15 0.1,-0.23 -0.03,0.07 -0.07,0.14 -0.1,0.23zm0.12 -0.28c0.04,-0.08 0.07,-0.15 0.1,-0.23 -0.03,0.08 -0.07,0.15 -0.1,0.23zm0.14 -0.28c0.05,-0.09 0.09,-0.19 0.14,-0.28 2.52,-5.35 5.34,-10.74 8.41,-16.15 -3.08,5.41 -5.89,10.81 -8.41,16.15 -0.05,0.09 -0.09,0.18 -0.14,0.28zm893.12 -28.77c-0.04,-0.05 -0.07,-0.11 -0.09,-0.17 0.03,0.06 0.06,0.12 0.09,0.17zm-0.1 -0.18c-0.09,-0.17 -0.17,-0.33 -0.26,-0.5 0.09,0.17 0.17,0.33 0.26,0.5zm-0.31 -0.58c-0.02,-0.04 -0.05,-0.07 -0.06,-0.11 0.01,0.05 0.04,0.07 0.06,0.11zm-0.12 -0.22c-0.02,-0.04 -0.05,-0.07 -0.05,-0.1 0.01,0.04 0.03,0.07 0.05,0.1zm-0.12 -0.22c-0.01,-0.04 -0.04,-0.06 -0.05,-0.09 0.01,0.02 0.04,0.05 0.05,0.09zm-0.16 -0.3c-24.21,-43.82 -68.85,-76.29 -109.4,-103.8 -3.37,-2.29 -6.75,-4.55 -10.16,-6.79 3.4,2.24 6.79,4.5 10.16,6.79 40.55,27.51 85.18,59.98 109.4,103.8zm-437.81 -230.14c-1.51,-0.88 -3.02,-1.72 -4.52,-2.53 1.5,0.82 3.01,1.66 4.52,2.53zm-4.95 -2.76c-4.36,-2.33 -8.65,-4.31 -12.91,-6.01 4.26,1.7 8.55,3.69 12.91,6.01zm-13.24 -6.15c-0.86,-0.34 -1.72,-0.67 -2.58,-0.99 0.86,0.32 1.72,0.65 2.58,0.99zm-2.69 -1.03c-0.18,-0.07 -0.36,-0.13 -0.56,-0.19 0.19,0.07 0.37,0.13 0.56,0.19z"/>
   <path class="fil1" d="M898.54 379.85c2.72,-3.55 5.15,-7.39 7.31,-11.47 -1.82,4.3 -4.28,8.11 -7.31,11.47zm-886.39 -102c0,-0.01 0,-0.01 0.01,-0.02 0,0.01 -0.01,0.01 -0.01,0.02zm0.13 -0.27c0,-0.01 0.01,-0.02 0.02,-0.05 -0.01,0.02 -0.02,0.04 -0.02,0.05zm0.12 -0.27c0.01,-0.02 0.02,-0.04 0.02,-0.06 0,0.02 -0.01,0.04 -0.02,0.06zm0.13 -0.29c0.01,-0.01 0.02,-0.03 0.04,-0.05 -0.01,0.02 -0.02,0.05 -0.04,0.05zm8.58 -16.49c18.47,-32.5 46.18,-65.17 74.47,-86.87 30.03,-23.01 60.03,-38.64 93.95,-53.63 -33.92,14.98 -63.92,30.62 -93.95,53.63 -28.29,21.7 -56,54.36 -74.47,86.87zm884.58 -12.31c-0.01,0 -0.01,-0.01 -0.01,-0.02 0,0.01 0,0.02 0.01,0.02zm-0.1 -0.19c-0.01,-0.01 -0.01,-0.01 -0.01,-0.01 0,0 0,0 0.01,0.01zm-0.27 -0.51c-0.01,-0.02 -0.04,-0.05 -0.05,-0.08 0.01,0.04 0.03,0.06 0.05,0.08zm-0.1 -0.19c-0.02,-0.04 -0.05,-0.07 -0.06,-0.1 0.01,0.04 0.04,0.07 0.06,0.1zm-0.11 -0.21c-0.02,-0.03 -0.05,-0.08 -0.07,-0.11 0.02,0.04 0.05,0.08 0.07,0.11zm-0.12 -0.2c-0.03,-0.07 -0.08,-0.14 -0.11,-0.21 0.04,0.07 0.08,0.14 0.11,0.21zm-119.67 -110.8c-16.4,-10.74 -33.22,-20.68 -51.06,-28.94 -47.02,-21.75 -98.94,-17.24 -148.71,-25.73 49.77,8.49 101.69,3.98 148.71,25.73 17.84,8.25 34.66,18.2 51.06,28.94zm-585.63 -20.51c26.38,-11.34 51.54,-29.98 76.58,-49.02 -25.04,19.04 -50.2,37.68 -76.58,49.02zm77.77 -49.94c42.63,-32.42 84.96,-65.67 132.44,-65.67 11.58,0 23.47,1.99 35.73,6.44 -12.26,-4.45 -24.16,-6.44 -35.73,-6.44 -47.46,0 -89.81,33.25 -132.44,65.67zm192.29 -47.48c-0.89,-0.55 -1.8,-1.08 -2.69,-1.61 0.89,0.53 1.8,1.07 2.69,1.61zm-7.21 -4.14c-0.14,-0.07 -0.28,-0.15 -0.43,-0.23 0.15,0.08 0.3,0.16 0.43,0.23zm-13.34 -6.24c-0.11,-0.05 -0.23,-0.09 -0.33,-0.14 0.1,0.05 0.22,0.09 0.33,0.14zm-2.91 -1.13c-0.03,-0.01 -0.07,-0.02 -0.11,-0.05 0.05,0.02 0.08,0.04 0.11,0.05z"/>
   <g style="clip-path:url(#id0)">
    <image x="-10.36" y="-10.64" width="943.58" height="475.88" xlink:href="snowdrift_04_Images\snowdrift_04_ImgID1.png"/>
   </g>
   <path class="fil2" d="M883.72 386.02c-10.8,5.84 -22.07,10.75 -33.09,16.15 -6.73,3.28 -17.37,5.08 -22.96,9.97 -15.3,13.35 -0.38,40.4 -11.67,56.6 -4.59,6.56 -13.28,8.65 -17.72,15.24 -5.45,8.08 -2.11,18.82 0.06,27.46 2.21,8.87 5.61,18.32 3.13,27.5 -2.1,7.77 -7.53,14.62 -10.54,22.08 -2.93,7.28 -7.81,39.1 -15.71,19.83 -6.04,-14.69 -7.82,-25.05 -24.29,-30.35 -10.78,18.21 -15.38,-16.31 -16.54,-21.83 -2,-9.5 -7.77,-30.98 -19.66,-31.31 -11.6,-0.31 -20.83,8.86 -32.72,2.75 -6.15,-3.16 -11.72,-9.93 -19.3,-9.27 -5.56,0.48 -9.24,4.48 -15.35,3.72 -7.75,-0.95 -13.44,-6.67 -20.75,-8.69 -9.01,-2.47 -13.75,3.77 -22.09,4.84 -3.58,0.45 -7.11,-0.86 -10.8,0.34 -5.65,1.83 -4.22,5.02 -7.99,8.07 -4.63,3.74 -1.95,1.35 -6.35,-1.95 -2.86,-2.16 -6.6,-2.35 -9.25,-4.36 -7.02,-5.33 -3.51,-18.95 -15.98,-15.86 -8.74,2.16 -13.31,11.69 -14.43,19.8 -1.08,7.7 0.1,15.85 -1.66,23.44 -1.53,6.62 -3.3,9.09 -6.92,2.6 -6.45,-11.57 -0.7,-30.38 -19.06,-33.64 -6.6,-1.17 -9.37,2.48 -14.35,5.77 -4.98,3.27 -8.58,3.44 -14.37,4.07 -10.35,1.15 -16.01,9.74 -26.21,10.77 -4.67,0.48 -9.55,-1.33 -13.71,1.5 -4.14,2.8 -4.61,9.05 -8.69,11.96 -3.97,2.85 -8.7,1.2 -12.87,3.31 -4.71,2.37 -5.86,10.6 -9.99,12.27 -8.68,3.52 -14.31,-16.61 -23.96,-2.7 -4.68,6.72 -8.8,19.88 -10.35,27.79 -2.6,13.19 1.33,25.83 -4.04,38.73 -6.04,-14.53 -6.2,-29.54 -7.5,-44.96 -0.98,-11.42 -3.51,-25.75 -11.08,-34.88 -6.62,-7.98 -16.72,-8.38 -26.24,-9.89 -26.78,-4.27 -59.76,-18.79 -84.51,-2.15 -6.28,4.22 -11.53,10.65 -18.22,14.18 -9.38,4.96 -21.77,-0.74 -29.86,7.4 -11.69,11.78 -4.28,33.98 -14.28,46.76 -9.67,12.36 -12.02,-21 -13.62,-26.84 -3.77,-13.75 -10.45,-23.37 -24.9,-15.92 -10.39,5.37 -21.58,15.29 -22.67,-2.87 -1.19,-19.73 -0.31,-38.38 -3.7,-58.08 -2.74,-15.83 -3.84,-35.67 -20.39,-43.25 -12.74,-5.83 -27.56,-7.67 -40.71,-12.99 -19.28,-7.79 -32.85,-19.23 -46.27,-34.89 7.03,15.87 18.1,29.42 34.09,38.09 19.33,10.48 45.12,10.09 60.59,27.31 14.32,15.95 11.06,36.92 7.37,56.11 -3.82,19.88 -0.05,43.9 3.89,63.95 1.18,5.98 3.12,22.79 11.93,22.95 5.13,-11.68 1.4,-25.54 7.38,-37.1 4.01,-7.74 15.58,-14.04 22.3,-6.03 4.37,5.22 2.88,22.81 4.32,29.65 3.4,16.35 3.85,50.5 17.05,62.63 3.41,3.14 10.41,-50.14 11.02,-54.87 4.36,-33.56 5.61,-63.58 41.8,-35.77 4.65,-2.73 5.44,-6.75 6.32,-12.34 4.86,-30.79 33.65,-30.92 58.08,-24.94 18.41,4.5 37.72,-3.25 49.76,13.79 15.84,22.44 1.34,112.15 35.49,113.85 6.82,-21.53 -0.03,-43.65 2.99,-65.51 5.57,-40.35 18.86,-15.62 44.26,-30 9.81,-5.54 8.56,-18.06 16.22,-24.02 6.39,-4.97 11.68,-3.89 18.76,-6 8.04,-2.38 10.06,-5.08 16.94,-8.61 13.3,-6.83 30.09,-6.4 39.83,6.81 9.68,13.14 2.27,46.05 15.36,54.47 17.69,11.38 11.96,-29.02 11.87,-37.8 -0.06,-6.06 -6.28,-59.78 11.43,-47.76 4.68,3.18 1.69,7.66 3.11,11.91 1.74,5.22 2.77,2.99 6.7,5.71 4.09,2.84 5,5.02 6.38,9.99 1.41,5.05 2.62,27.87 10.86,23.48 7.9,-4.23 -1.62,-18.66 7.25,-24.57 6.46,-4.32 21.39,-9.97 29.09,-8.55 11.44,2.11 20.77,10.39 32.95,11.49 15.09,1.35 31.47,-8.75 46.44,-2.5 3.54,1.49 7.38,4.32 11.45,5.94 6.58,2.61 7.74,-0.11 12.69,6.11 14.67,18.43 4.28,52.37 21.87,68.49 4.05,-6.57 0.97,-27.09 10.77,-26.22 9.72,0.84 9.26,24.67 10.25,31.36 2.56,17.36 -0.78,62.65 15.55,73.09 10.74,-11.59 4.02,-44.9 4.84,-60.13 1.29,-24.05 14.84,-33.44 25.11,-52.94 10.68,-20.28 -5.97,-41.2 -0.92,-61.75 1.41,-5.71 6.91,-9.81 8.96,-15.44 2.52,-6.88 2.16,-15.01 2.33,-22.23 0.36,-14.78 -4,-29.7 10.37,-38.56 18.7,-11.55 38.44,-13.19 55.84,-29.13 4.45,-4.07 8.32,-8.83 11.69,-14.06 -5.91,4.13 -12.08,7.97 -18.49,11.44z"/>
   <path class="fil3" d="M209.03 431.4c-10.1,-3.86 -20.18,-7.24 -31.39,-8.5 -21.79,-2.45 -43.57,-5.12 -65.07,-9.5 -25.41,-5.18 -51.89,-15.59 -78.04,-15.77 7.56,6.04 9.39,11.99 19.09,14.79 21.77,6.29 44.36,12.41 65.19,21.31 16.76,7.14 29.29,22.76 46.23,28.62 12.8,4.43 45,9.43 56.32,1.14 -11.78,-3.4 -32.23,-1.1 -40.24,-11.82 -3.75,-4.98 30.22,-5.22 31.9,-5.01 28.31,3.63 53.41,8.78 82.13,4.97 11,-1.45 24.1,1.8 33.09,-6.13 -23.29,-3.02 -45.71,-4.48 -69.76,-4.46 -10.36,0.01 -21.21,1.07 -30.81,-2.44 -6.39,-2.34 -12.52,-4.86 -18.64,-7.2z"/>
   <path class="fil3" d="M650.24 444.61c39.74,-7.22 79.87,-12.09 119.6,-19.65 13.34,-2.54 26.22,-5.64 38.48,-11.57 9.96,-4.81 19.59,-10.8 30.64,-12.69 -6.79,3.17 -11.67,9.59 -18.5,13.04 -11.94,6.04 -23.9,12.11 -36.24,17.32 -10.84,4.58 -22.27,6.94 -33.24,11.9 -6.71,3.03 -8.03,6.65 -12.39,11.64 -4.69,5.36 -13.4,4.72 -20.02,5.42 -6.57,0.7 -12.28,1.72 -18.55,3.96 -4.34,1.56 -11.83,7.67 -16.12,6.49 0.57,-15.56 -15.19,-13.61 -26.09,-12.18 -17.33,2.28 -34.75,6.72 -52.21,7.74 -1.68,0.09 -5.65,0.82 -7.02,-0.15 -2.02,-1.43 -0.17,-3.58 -1.34,-4.79 -3.31,-3.46 -10.08,-2.69 -14.69,-3.88 -6.34,-1.63 -12.42,-4.81 -18.65,-6.34 -4.85,-1.19 -10.87,-0.6 -15.93,-0.41 -12.57,0.47 -25.37,1.16 -37.83,3 -9.18,1.34 -24.22,6.47 -32.85,2.01 15.03,-6.36 31.57,-8.55 47.56,-11.48 14.26,-2.6 31.09,-6.37 45.68,-4.72 11.66,1.32 21.89,5.69 33.58,6.54 13.91,1.01 28.04,2.13 41.86,-0.43 1.42,-0.26 2.84,-0.52 4.25,-0.77z"/>
  </g>
 </g>
</svg>
