<?xml version="1.0" encoding="UTF-8"?>
<!DOCTYPE svg PUBLIC "-//W3C//DTD SVG 1.1//EN" "http://www.w3.org/Graphics/SVG/1.1/DTD/svg11.dtd">
<!-- Creator: CorelDRAW 2021 (64-Bit) -->
<svg xmlns="http://www.w3.org/2000/svg" xml:space="preserve" width="17.1317mm" height="22.1237mm" version="1.1" style="shape-rendering:geometricPrecision; text-rendering:geometricPrecision; image-rendering:optimizeQuality; fill-rule:evenodd; clip-rule:evenodd"
viewBox="0 0 614.17 793.13"
 xmlns:xlink="http://www.w3.org/1999/xlink"
 xmlns:xodm="http://www.corel.com/coreldraw/odm/2003">
 <defs>
  <style type="text/css">
   <![CDATA[
    .fil3 {fill:url(#id2)}
    .fil1 {fill:url(#id3)}
    .fil2 {fill:url(#id4)}
    .fil0 {fill:url(#id5)}
   ]]>
  </style>
    <clipPath id="id0">
     <path d="M59.5 534.8c-2.31,0 -4.56,-0.19 -6.75,-0.38 -41.43,-4.85 -48.31,-39.26 -45.1,-73.87 6.81,-36.41 18.11,-72.34 32.19,-107.42 5.71,-12.07 11.63,-23.96 17.22,-36.22 2.7,-5.99 5.27,-12.83 7.84,-19.96 10.98,-22.53 22.8,-44.59 35.01,-66.16 1.41,-1.14 2.82,-2.28 4.3,-3.23 5.59,-3.8 10.79,-5.99 15.68,-6.75 1.86,-0.28 3.72,-0.47 5.46,-0.47 34.37,0 55.37,55.04 64.17,80.43 13.43,39.07 21.13,82.33 -3.98,117.69 -22.36,31.56 -41.88,74.44 -73.68,98.01 -14.2,10.55 -34.3,18.35 -52.35,18.35l0 0z"/>
    </clipPath>
    <clipPath id="id1">
     <path d="M335.74 315.91c-37.11,0 -72.83,-5.61 -103.8,-33.56 -16.46,-14.73 -33.76,-27.67 -50.51,-41.26 -30.14,-24.33 -42.83,-63.69 -31.95,-100.2 0.28,-0.57 0.42,-1.24 0.56,-1.81 19.39,-41.45 37.95,-71.87 59.57,-93.45 14.65,-13.6 31.11,-24.72 48.41,-31.57 6.56,-2.66 13.12,-4.85 19.95,-6.65 17.44,-4.28 37.11,-6.18 59.85,-6.18 33.07,0 72.41,4.09 120.4,11.12 0.56,0.1 1.11,0.1 1.53,0.19 19.95,2.95 42.83,11.6 63.34,22.82 0.14,0.19 0.42,0.28 0.7,0.38 0.14,0.09 0.28,0.19 0.56,0.28 0,0 0,0 0,0.1 0,0 0.14,0 0.14,0.09 12.14,6.66 23.3,14.35 32.65,22.25 0.14,0.09 0.14,0.09 0.14,0.09 0.56,0.48 1.11,0.95 1.67,1.43 0.84,0.76 1.67,1.43 2.37,2.19 8.51,7.79 16.46,17.21 23.3,27.86 21.9,34.41 29.72,78.15 27.77,119.31 -2.09,11.98 -5.86,23.29 -11.58,33.56 -23.58,42.12 -63.34,63.79 -106.87,70.54 -10.32,1.61 -20.93,2.38 -31.53,2.38 -7.82,0 -15.63,-0.38 -23.44,-1.24 -8.93,-0.86 -18.14,-1.24 -27.34,-1.24 -12.7,0 -25.39,0.67 -38.09,1.24 -12.69,0.67 -25.39,1.33 -37.81,1.33l0 0z"/>
    </clipPath>
  <radialGradient id="id2" gradientUnits="userSpaceOnUse" gradientTransform="matrix(1.20716 -0 -0 -1.20717 -83 123)" cx="399.25" cy="55.82" r="223.3" fx="399.25" fy="55.82">
   <stop offset="0" style="stop-opacity:1; stop-color:#FEFEFE"/>
   <stop offset="1" style="stop-opacity:1; stop-color:#759AC1"/>
  </radialGradient>
  <radialGradient id="id3" gradientUnits="userSpaceOnUse" gradientTransform="matrix(1.61511 -0 -0 -1.61504 -9 946)" xlink:href="#id2" cx="14.13" cy="361.74" r="114.86" fx="14.13" fy="361.74">
  </radialGradient>
  <radialGradient id="id4" gradientUnits="userSpaceOnUse" gradientTransform="matrix(1.16164 -0 -0 -1.16166 -64 118)" xlink:href="#id2" cx="396.05" cy="54.43" r="232.05" fx="396.05" fy="54.43">
  </radialGradient>
  <radialGradient id="id5" gradientUnits="userSpaceOnUse" gradientTransform="matrix(1.90225 -0 -0 -1.92203 -580 1996)" cx="642.97" cy="683.13" r="392.83" fx="642.97" fy="683.13">
   <stop offset="0" style="stop-opacity:1; stop-color:#E7ECF3"/>
   <stop offset="0.368627" style="stop-opacity:1; stop-color:#E7ECF3"/>
   <stop offset="0.639216" style="stop-opacity:1; stop-color:#C7D3E1"/>
   <stop offset="1" style="stop-opacity:1; stop-color:#FEFEFE"/>
  </radialGradient>
 </defs>
 <g id="Layer_x0020_1">
  <metadata id="CorelCorpID_0Corel-Layer"/>
  <g id="_1415753956592">
   <path class="fil0" d="M160.88 793.13c-12.25,-1.77 -11.05,-38.43 -13.59,-48.39 -2.66,-10.4 -5.45,-17.53 -15.23,-22.67 -12.67,-6.68 -26.94,-11.57 -38.57,-20.07 -15.64,-11.46 -25.15,-30.67 -39.83,-43.83 -6.82,-6.11 -15.29,-10.23 -21.65,-16.8 -38.37,-39.54 -34.55,-113.43 -27.33,-162.87 0.87,-5.99 1.89,-11.99 3,-17.97 -3.19,34.63 3.64,69 45.11,73.86 2.19,0.25 4.43,0.38 6.69,0.38 18.07,0 38.21,-7.8 52.41,-18.35 31.77,-23.56 51.27,-66.38 73.67,-97.95 25.13,-35.4 17.41,-78.6 3.94,-117.69 -8.78,-25.42 -29.79,-80.46 -64.13,-80.46 -1.78,0 -3.59,0.15 -5.45,0.47 -4.88,0.81 -10.09,2.93 -15.67,6.73 -1.51,1.03 -2.95,2.12 -4.34,3.3 12.14,-21.41 24.66,-42.31 37.1,-62.55 4.43,-10.28 8.77,-19.99 13.06,-29.17 -0.19,0.61 -0.37,1.2 -0.54,1.81 -10.89,36.49 1.82,75.83 31.86,100.2 16.8,13.62 34.1,26.52 50.51,41.29 30.97,27.9 66.7,33.51 103.79,33.51 12.52,0 25.18,-0.63 37.88,-1.28 12.7,-0.63 25.42,-1.28 38.05,-1.28 9.21,0 18.37,0.34 27.42,1.27 7.77,0.8 15.57,1.21 23.35,1.21 10.62,0 21.19,-0.77 31.55,-2.38 43.54,-6.78 83.26,-28.44 106.88,-70.56 5.74,-10.25 9.5,-21.6 11.52,-33.54 -0.48,10.07 -1.53,19.98 -3.11,29.57 -5.06,30.76 -17.04,59.43 -34.59,85.14 -9.42,13.8 -20.17,26.65 -31.42,38.99 -8.99,9.89 -30.72,24.59 -36.47,36.92l-0.56 1.31c-3.15,8.34 0.38,14.66 -0.19,22.82 -0.81,11.6 -14.05,18.36 -20.16,27.49 -9.54,14.26 -12.08,31.06 -15.09,47.58 -0.71,3.9 -2.02,23.03 -6.61,23.03 -0.94,0 -2.02,-0.81 -3.28,-2.75 -1.73,-2.68 -1.88,-11.15 -2.35,-14.57 -2.04,-14.86 1.61,-42.01 -7.97,-53.49 -1.87,-2.25 -6.75,-4.74 -9.37,-7.13 -13.62,-12.33 -4.77,-27.63 -12.43,-42.13 -6.55,-12.41 -18.54,-15.21 -31.31,-15.21 -1.94,0 -3.88,0.06 -5.83,0.16 -1.65,0.09 -3.3,0.13 -4.98,0.13 -4.39,0 -8.89,-0.25 -13.42,-0.51 -4.52,-0.25 -9.07,-0.51 -13.56,-0.51 -10.7,0 -21.06,1.44 -29.97,7.75 -15.07,10.71 -33.24,29.13 -41.13,45.82 -9.39,19.85 -7.41,39.29 -26.59,53.45 0.29,-3.12 -1.53,-5.77 -1.49,-8.82 -0.97,-0.23 -1.92,-0.34 -2.85,-0.34 -27.38,0 -33.63,96.24 -37.06,108.9 -4.43,16.25 -17.94,25.56 -24.03,40.47 -5.5,13.42 -2.65,29.04 -7.22,42.95 -3.77,11.43 -12.15,21.62 -14.59,33.39 -1.82,8.78 1.86,21.47 -1.74,29.69 -4.49,10.22 -11.25,9.73 -11.94,22.99 -0.54,10.19 0.41,20.47 -0.15,30.68zm-121.01 -440.04c7.6,-18.99 16.04,-37.73 25.04,-56.18 -2.57,7.17 -5.12,14 -7.87,20.03 -5.58,12.19 -11.5,24.13 -17.18,36.15zm544.77 -263.07c-6.88,-10.61 -14.72,-20.07 -23.23,-27.85 -0.8,-0.72 -1.61,-1.44 -2.44,-2.18 0.84,0.73 1.64,1.46 2.44,2.18 9.06,8.27 16.76,17.66 23.23,27.85zm-27.29 -31.42c-0.05,-0.04 -0.1,-0.09 -0.16,-0.13 0.06,0.04 0.11,0.09 0.16,0.13zm-347.7 -12.94c19.39,-19.37 41.21,-31.59 68.29,-38.21 -6.75,1.8 -13.39,3.97 -19.92,6.57 -17.28,6.89 -33.68,17.99 -48.38,31.63zm314.87 -9.48c-0.05,-0.04 -0.1,-0.06 -0.15,-0.09 0.05,0.03 0.1,0.05 0.15,0.09zm-0.2 -0.11c-0.16,-0.1 -0.33,-0.19 -0.49,-0.28 0.16,0.09 0.33,0.18 0.49,0.28zm-1.23 -0.68c-20.53,-11.28 -43.31,-19.9 -63.25,-22.81 -0.52,-0.08 -1.04,-0.15 -1.54,-0.23 0.51,0.08 1.02,0.15 1.54,0.23 19.93,2.91 42.72,11.54 63.25,22.81z"/>
   <path class="fil1" d="M7.67 460.52c1.52,-16.4 5.29,-32.86 8.69,-46.26 5.45,-21.52 14.16,-41.44 23.51,-61.17 -14.1,35.14 -25.37,71.08 -32.2,107.43zm57.24 -163.61c8.47,-23.65 17.27,-51.03 35,-66.1 -12.21,21.53 -24.02,43.59 -35,66.1z"/>
   <g style="clip-path:url(#id0)">
    <image x="-4.8" y="208.63" width="226.63" height="335.4" xlink:href="snowdrift_06_Images\snowdrift_06_ImgID1.png"/>
   </g>
   <path class="fil2" d="M612.35 209.34c1.96,-41.15 -5.82,-84.86 -27.71,-119.33 22.13,34.09 34.38,79.93 27.71,119.33zm-462.27 -70.27c10.25,-32.99 31.9,-67.74 59.57,-93.41 -21.6,21.58 -40.17,52.02 -59.57,93.41zm408.89 -79.08c-0.53,-0.46 -1.08,-0.92 -1.62,-1.39 0.54,0.47 1.09,0.94 1.62,1.39zm-1.79 -1.52c-9.35,-7.92 -20.59,-15.56 -32.67,-22.29 12.08,6.74 23.32,14.38 32.67,22.29zm-32.82 -22.38c-0.01,-0.01 -0.04,-0.03 -0.05,-0.03 0.01,0 0.04,0.01 0.05,0.03zm-0.54 -0.3c-0.25,-0.14 -0.49,-0.28 -0.73,-0.41 0.24,0.13 0.48,0.27 0.73,0.41zm-65.52 -23.45c-48.03,-6.97 -87.43,-11.09 -120.51,-11.09 -22.64,0 -42.34,1.94 -59.85,6.21 20.31,-5.42 41.56,-7.46 63.08,-7.46 39.61,0 80.13,6.9 117.28,12.34z"/>
   <g style="clip-path:url(#id1)">
    <image x="129.26" y="-10.17" width="492.22" height="335.4" xlink:href="snowdrift_06_Images\snowdrift_06_ImgID2.png"/>
   </g>
   <path class="fil3" d="M526.6 367.88c-4.58,4.83 -9.01,9.64 -14.66,13.59 -4.9,3.43 -10.21,7.39 -13.98,12.06 -7.02,8.75 -2.58,19.79 -5.78,29.77 -3.4,10.59 -15.05,12.97 -18.33,23.66 -1.43,4.68 -1.01,9.67 -1.76,14.47 -0.79,5.1 -2.61,9.94 -3.11,15.1 -0.29,2.92 0.91,12.58 -2.55,14.18 -5.21,2.38 -4.47,-21.44 -4.61,-23.7 -0.48,-7.52 -2.25,-22.59 -7.61,-28.3 -3.26,-3.49 -7.44,-3.35 -9.99,-7.96 -5.03,-9.1 -1.67,-21.71 -5.75,-31.71 -9.67,-23.55 -41.72,-22.78 -62.56,-21.65 -16.11,0.86 -33.1,3.4 -48.54,8.15 -12.11,3.73 -21.43,15.86 -28.71,25.7 -9.55,12.9 -16.86,24.8 -21.03,40.68 -1.59,6.06 -1.64,20.95 -7.06,24.76 -4.3,3.04 -5.17,-0.37 -7.93,-3.11 -10.46,-10.38 -19.41,4.26 -24.09,12.62 -19.57,34.98 -13.84,78.23 -32.23,113.35 -5.29,10.08 -14.61,18.13 -19.34,28.55 -4.46,9.81 -1.17,20.69 -2.57,31.05 -2.62,19.39 -15.54,35.49 -16.54,55.77 -0.39,7.92 0.57,12.58 -3.77,18.88 -4.8,6.98 -6.25,12.83 -6.25,21.31 0,8.34 0.37,16.78 -0.08,25.09 -6.45,0.89 -8.65,-53.46 -9.35,-60.21 -0.84,-8.31 -4.2,-13.98 -12.82,-16.01 -11.27,-2.63 -22.31,-2.36 -33.38,-6.52 -10.5,-3.95 -17.77,-11.81 -24.95,-20.07 -4.31,-4.96 -13.38,-18.89 -20.78,-16.61 12.06,13.56 22.18,30.4 36.96,41.23 11.64,8.5 25.9,13.39 38.57,20.07 9.78,5.14 12.57,12.28 15.23,22.67 2.54,9.94 1.34,46.62 13.59,48.39 0.54,-10.19 -0.39,-20.49 0.14,-30.68 0.71,-13.27 7.46,-12.77 11.95,-22.99 3.6,-8.22 -0.08,-20.92 1.74,-29.69 2.43,-11.76 10.83,-21.95 14.59,-33.39 4.58,-13.91 1.72,-29.53 7.22,-42.95 6.09,-14.91 19.6,-24.22 24.03,-40.47 3.55,-13.07 10.12,-115.5 39.91,-108.56 -0.04,3.05 1.79,5.69 1.49,8.82 19.18,-14.15 17.2,-33.6 26.59,-53.45 7.89,-16.69 26.05,-35.11 41.13,-45.82 17.82,-12.63 41.48,-5.76 61.93,-6.87 14.85,-0.8 29.59,0.76 37.14,15.05 7.66,14.49 -1.19,29.79 12.43,42.13 2.62,2.38 7.5,4.88 9.37,7.13 9.57,11.48 5.93,38.64 7.97,53.49 0.47,3.42 0.62,11.89 2.35,14.57 7.28,11.29 9.03,-15.58 9.89,-20.29 3.01,-16.52 5.55,-33.31 15.09,-47.58 6.11,-9.13 19.35,-15.9 20.16,-27.49 0.57,-8.16 -2.96,-14.48 0.19,-22.82l0.56 -1.31c5.75,-12.33 27.48,-27.03 36.47,-36.92 10.41,-11.43 30.5,-26.43 32.58,-42.54 -7.14,-0.01 -19.59,17.67 -24.12,23.16 -5.95,7.23 -13.31,12.53 -19.88,18.89 -1.8,1.76 -3.52,3.54 -5.21,5.33z"/>
  </g>
 </g>
</svg>
