<?xml version="1.0" encoding="UTF-8"?>
<!DOCTYPE svg PUBLIC "-//W3C//DTD SVG 1.1//EN" "http://www.w3.org/Graphics/SVG/1.1/DTD/svg11.dtd">
<!-- Creator: CorelDRAW 2021 (64-Bit) -->
<svg xmlns="http://www.w3.org/2000/svg" xml:space="preserve" width="19.159mm" height="21.1381mm" version="1.1" style="shape-rendering:geometricPrecision; text-rendering:geometricPrecision; image-rendering:optimizeQuality; fill-rule:evenodd; clip-rule:evenodd"
viewBox="0 0 999.13 1102.34"
 xmlns:xlink="http://www.w3.org/1999/xlink"
 xmlns:xodm="http://www.corel.com/coreldraw/odm/2003">
 <defs>
  <style type="text/css">
   <![CDATA[
    .fil2 {fill:#C7D3E1;fill-rule:nonzero}
    .fil1 {fill:#C4D0E0;fill-rule:nonzero}
    .fil0 {fill:url(#id1)}
   ]]>
  </style>
    <clipPath id="id0">
     <path d="M438.94 685.23c-4.66,0 -9.61,-0.4 -14.55,-0.8 -98.68,-10.25 -187.46,-49.61 -269.83,-102.44 -65.78,-41.98 -152.81,-79.35 -144.95,-175.76 3.49,-41.58 23.87,-99.03 70.73,-124.74 28.53,-15.87 59.96,-28.53 90.23,-40.98 52.39,-21.29 107.12,-43.59 151.65,-82.96 7.28,-6.42 14.55,-12.85 21.54,-19.28 8.73,-7.84 17.17,-15.47 25.62,-22.9 40.17,-35.15 76.26,-62.07 122.25,-79.54 46.28,-17.68 88.49,-26.72 125.16,-26.72 29.98,0 57.05,6.02 80.34,17.67 20.67,10.25 38.13,24.5 56.76,39.57 13.68,11.05 27.95,22.5 43.08,32.14 15.43,9.64 32.02,16.67 48.32,23.5 20.37,8.64 39.59,16.67 55.88,29.32 89.65,69.5 98.1,190.02 83.25,294.07 -15.72,111.28 -116.72,188.41 -223.84,195.24 -55.6,3.42 -97.22,19.88 -150.78,19.88 -5.82,0 -11.93,-0.2 -18.34,-0.6 -3.49,-0.2 -6.7,-0.4 -10.19,-0.4 -35.51,0 -67.82,13.45 -101.88,20.89 -13.09,2.81 -26.49,4.82 -40.46,4.82l0 0z"/>
    </clipPath>
  <radialGradient id="id1" gradientUnits="userSpaceOnUse" gradientTransform="matrix(2.04266 -0 -0 -2.04267 -510 -67)" cx="489.57" cy="-22.04" r="551.17" fx="489.57" fy="-22.04">
   <stop offset="0" style="stop-opacity:1; stop-color:#FEFEFE"/>
   <stop offset="0.658824" style="stop-opacity:1; stop-color:#C7D3E1"/>
   <stop offset="1" style="stop-opacity:1; stop-color:#E7ECF3"/>
  </radialGradient>
 </defs>
 <g id="Layer_x0020_1">
  <metadata id="CorelCorpID_0Corel-Layer"/>
  <g id="_1415746122384">
   <path class="fil0" d="M249.04 1102.34c-0.16,0 -0.33,-0.07 -0.47,-0.22 -21.21,-19.5 -27.15,-169.1 -58.63,-169.1 -3.57,0 -7.49,1.93 -11.78,6.2 -14.53,14.42 -4.75,47.1 -23.84,47.1 -2.98,0 -6.66,-0.81 -11.24,-2.59 -38.17,-14.87 -16.65,-118.48 -21.56,-150.49 -7.39,-48.18 -41.69,-83.41 -34.31,-133.82 9.99,-68.23 52.37,-87.31 -6.44,-145.83 -42.02,-41.8 -85.53,-84.35 -80.34,-148.15 4.14,-50.96 29.29,-106.71 75.37,-132.07 78.83,-43.42 171.28,-61.69 240.34,-122.73 16.12,-14.26 31.61,-28.5 47.23,-42.18 37.47,-32.82 75.67,-62.44 124.88,-81.23 39.83,-15.19 84.72,-27.21 128.59,-27.21 29.16,0 57.86,5.3 84.35,18.52 37.42,18.67 65.69,50.08 100.79,72.17 33.21,20.88 73.72,29.29 104.74,53.35 131.89,102.31 98.7,304.05 46.69,438.72 -26.76,69.34 21.97,146.94 -3.09,194.75 -16.69,31.88 -41.89,47.21 -39.65,85.9 0.78,13.13 4.75,36.5 -11.07,44 -3.54,1.67 -6.4,2.41 -8.74,2.41 -10.91,0 -9.9,-16.19 -9.27,-27.8 0.76,-14.39 -4.67,-48.7 -17.09,-48.7 -4.12,0 -9.03,3.79 -14.74,13.39 -11.19,18.84 -3.9,54.55 -3.68,75.55 0.13,12.51 7.29,64.52 -10.37,64.52 -2.45,0 -5.37,-1.01 -8.87,-3.25 -21.21,-13.65 -9.2,-66.99 -24.91,-88.29 -9.35,-12.69 -22.72,-18.09 -36.54,-18.09 -9.5,0 -19.23,2.54 -28,7.05 -11.15,5.73 -14.44,10.12 -27.45,13.99 -11.5,3.4 -20.05,1.67 -30.43,9.73 -12.42,9.64 -10.38,29.95 -26.27,38.93 -13.25,7.48 -24.47,8.42 -33.89,8.42 -1.56,0 -3.09,-0.02 -4.56,-0.05 -1.47,-0.02 -2.89,-0.06 -4.27,-0.06 -14.64,0 -23.86,2.96 -29.02,40.29 -4.89,35.43 6.2,71.27 -4.83,106.19 -55.34,-2.77 -31.85,-148.15 -57.51,-184.5 -19.5,-27.63 -50.79,-15.07 -80.65,-22.37 -12.02,-2.94 -24.69,-4.96 -36.74,-4.96 -27.6,0 -51.88,10.65 -57.36,45.39 -1.43,9.05 -2.7,15.6 -10.25,20 -16.2,-12.46 -28.09,-17.74 -36.96,-17.74 -23.2,0 -25.66,36.35 -30.78,75.72 -0.98,7.43 -11.7,89.15 -17.39,89.15zm367.8 -1093.14c-36.87,0 -79.04,8.94 -125.32,26.6 -46,17.55 -82.07,44.5 -122.09,79.57 -8.55,7.47 -17.05,15.12 -25.64,22.85 -7.1,6.4 -14.26,12.84 -21.56,19.28 -44.69,39.52 -99.14,61.67 -151.8,83.08 -30.24,12.31 -61.52,25.02 -90.2,40.82 -46.75,25.74 -67.26,83.28 -70.65,124.75 -7.85,96.46 79.09,133.84 144.93,175.91 82.45,52.69 171.27,92.02 269.76,102.34 4.99,0.52 9.88,0.76 14.7,0.76 13.91,0 27.26,-1.97 40.35,-4.82 34.07,-7.42 66.35,-20.77 102.08,-20.77 3.3,0 6.61,0.11 9.96,0.35 6.36,0.46 12.51,0.66 18.52,0.66 53.44,0 95.22,-16.43 150.8,-19.96 107,-6.79 207.95,-83.98 223.75,-195.14 14.81,-104.13 6.33,-224.59 -83.36,-294.17 -16.34,-12.69 -35.51,-20.77 -55.8,-29.34 -16.17,-6.81 -32.87,-13.85 -48.18,-23.49 -15.36,-9.66 -29.47,-21.08 -43.14,-32.12 -18.63,-15.07 -36.24,-29.31 -56.88,-39.61 -23.34,-11.64 -50.33,-17.55 -80.23,-17.55z"/>
   <g style="clip-path:url(#id0)">
    <image x="-12.52" y="-6.95" width="1026.93" height="708.66" xlink:href="snowdrift_03_Images\snowdrift_03_ImgID1.png"/>
   </g>
   <path class="fil1" d="M231.87 656.17c24.28,10.43 53.72,23.2 81.22,31.19 29.88,8.66 59.16,10.56 89.94,13.06 15.29,1.24 32.42,-4.16 47.28,0.57 9.18,2.93 -4.56,4.4 -9.42,5.66 -31.35,8.22 -57.73,3.51 -89.41,1.51 -17.4,-1.13 -31.53,3.16 -47.15,10.39 -13.09,6.05 -27,12.75 -41.24,6.24 -12.34,-5.65 -20.57,-16.93 -33.76,-21.51 -13.84,-4.78 -29.79,-5.09 -44.29,-5.15 -16.68,-0.04 -31.92,5.24 -48.31,6.73 -16.81,1.54 -24.85,-10.69 -27.56,-26.01 -3.33,-18.86 12.51,-40.44 13.8,-60.01 0.81,-12.71 -1.95,-27.56 -8.89,-38.57 -5.8,-9.2 -17.13,-14.94 -21.82,-24.73 20.62,4.97 38.56,23.22 52.76,38.28 7.47,7.93 12.27,18 20.28,25.43 12.44,11.57 31.7,20.82 47.04,28.07 6.62,3.11 13.08,6.09 19.52,8.85z"/>
   <path class="fil1" d="M684.06 680.18c27.08,-2.95 47.65,-14.96 72.71,-24.1 25.48,-9.29 53.02,-8.39 78.94,-17.16 25.28,-8.55 45.6,-22.72 66.1,-39.21 20.2,-16.28 35.98,-31.4 47.89,-54.9 -2.39,27.21 -15.93,47.43 -23.64,72.78 -7.87,26 0.94,41.45 4.06,66.51 4.31,34.24 -12.95,21.34 -34.09,12.16 -22,-9.56 -36.04,-3.18 -55.91,9.03 -23.33,14.33 -43.71,31.9 -71.14,38.06 -0.55,-8.24 1.93,-16.06 3.71,-23.4 -42.92,-2.15 -79.68,17.2 -122.19,12.99 -24.14,-2.41 -43.44,-5.47 -67.78,-0.41 -22.22,4.6 -46.16,12.53 -68.97,10.32 0.86,-21.6 29.88,-17.22 44.56,-21.58 43.05,-12.77 80.03,-36.11 125.74,-41.1z"/>
   <path class="fil2" d="M887.57 856.62c-6.66,-34.93 -49.09,-34.93 -49.09,-4.99 0,152.8 -14.13,15.8 -74.01,19.96 -133.19,9.26 -123.85,64.87 -138.07,60.71 -64.45,-18.78 -73.88,39.11 -60.71,113.95 2.34,13.32 -20.31,-8.48 -22.47,-35.76 -3.24,-41.04 -5.41,-119.6 -79.84,-123.09 -35.84,-1.67 -59.02,-17.05 -98.81,-5.26 -17.83,5.28 -32.21,47.87 -50.08,48.51 -48.97,1.76 -53.37,23.25 -58.21,66.54 -7.15,63.84 -32.45,-103.14 -85.67,-73.2 -54.02,30.39 -37.7,-54.53 -39.1,-74.84 -2.83,-41.19 -24.67,-76.64 -43.16,-114.8 6.79,33.61 27.6,62.57 33.15,98.86 4.91,32.01 -16.61,135.62 21.56,150.49 33.98,13.23 18.29,-27.82 35.09,-44.5 42.11,-41.85 46.78,141.2 70.41,162.9 5.52,5.08 16.87,-81.27 17.86,-88.93 7.07,-54.4 9.07,-103.06 67.74,-57.98 7.55,-4.4 8.81,-10.95 10.25,-20 7.87,-49.88 54.53,-50.09 94.12,-40.42 29.84,7.31 61.13,-5.26 80.63,22.37 25.66,36.35 2.17,181.73 57.51,184.5 11.03,-34.91 -0.06,-70.76 4.83,-106.19 9.02,-65.38 30.54,-25.31 71.73,-48.6 15.9,-8.98 13.86,-29.29 26.27,-38.93 10.38,-8.06 18.93,-6.33 30.43,-9.73 13.01,-3.86 16.3,-8.26 27.45,-13.99 21.54,-11.06 48.75,-10.37 64.54,11.04 15.71,21.3 3.7,74.64 24.91,88.29 28.65,18.45 19.39,-47.02 19.24,-61.26 -0.22,-21.01 -7.5,-56.72 3.68,-75.55 22.83,-38.43 32.84,16.11 31.83,35.31 -0.76,14.09 -2.08,34.91 18.01,25.39 15.82,-7.5 11.85,-30.87 11.07,-44 -2.24,-38.69 22.96,-54.02 39.65,-85.9 5.07,-9.67 7.02,-20.64 7.3,-32.43 -10.84,38.78 -61.74,41.69 -59.24,113.22 0.83,23.92 -9.03,7.74 -10.82,-1.67z"/>
  </g>
 </g>
</svg>
