<?xml version="1.0" encoding="UTF-8"?>
<!DOCTYPE svg PUBLIC "-//W3C//DTD SVG 1.1//EN" "http://www.w3.org/Graphics/SVG/1.1/DTD/svg11.dtd">
<!-- Creator: CorelDRAW 2021 (64-Bit) -->
<svg xmlns="http://www.w3.org/2000/svg" xml:space="preserve" width="35.352mm" height="26.3725mm" version="1.1" style="shape-rendering:geometricPrecision; text-rendering:geometricPrecision; image-rendering:optimizeQuality; fill-rule:evenodd; clip-rule:evenodd"
viewBox="0 0 8615.62 6427.23"
 xmlns:xlink="http://www.w3.org/1999/xlink"
 xmlns:xodm="http://www.corel.com/coreldraw/odm/2003">
 <defs>
  <style type="text/css">
   <![CDATA[
    .fil2 {fill:url(#id4)}
    .fil0 {fill:url(#id5)}
    .fil3 {fill:url(#id6)}
    .fil4 {fill:url(#id7)}
    .fil1 {fill:url(#id8)}
   ]]>
  </style>
    <clipPath id="id0">
     <path d="M1203.1 2596.5c-80.98,0 -138.82,-2.32 -171.89,-8.51 -647.85,-119.05 -1156.91,-1016.49 -1003.21,-1671.99 1.66,-5.41 3.31,-10.82 4.97,-17.01 31.39,-124.46 99.17,-231.13 188.41,-323.11 0,0 0,0 1.63,0 0,0 0,-0.78 0,-0.78 0,0 0,0 0,-0.78l0 0c276.03,-280.58 765.22,-418.18 1102.4,-492.39 276,-61.07 560.26,-81.94 846.18,-81.94 295.84,0 593.33,22.42 884.23,44.84 728.84,56.42 1469.28,30.9 2188.22,177.79l0 0c0,0 1.63,0.78 3.29,0.78 110.74,23.18 221.48,54.1 330.54,93.51 -49.57,-4.63 -99.17,-6.95 -147.08,-6.95 -166.94,0 -325.6,27.83 -454.52,91.98 -497.46,252 -444.57,825.57 -160.31,1232.95 128.92,185.51 276.03,355.57 437.99,509.4 -1507.29,280.58 -3432.74,452.2 -4050.86,452.2l0 0z"/>
    </clipPath>
    <clipPath id="id1">
     <path d="M6616.49 1044.22c-244,-262.45 -494.27,-477.5 -805.92,-630.28 22.2,10.63 44.14,21.45 65.83,32.73 281.36,149.81 513.08,352.75 739.32,596.48 0.27,0.44 0.51,0.85 0.78,1.07l0 0z"/>
    </clipPath>
    <clipPath id="id2">
     <path d="M8292.97 4016.21c-111.69,0 -231.35,-31.24 -321.11,-57.13 -614.27,-171.33 -943.35,-678.88 -1445.93,-1020.48 -303.15,-205.84 -656.16,-310.36 -955.32,-530.19 -110.69,-81.91 -216.39,-170.26 -316.12,-264.01 342.05,-63.58 663.13,-132.55 942.35,-206.91 198.45,-52.81 356.01,-162.72 445.74,-302.81 108.69,-170.26 116.69,-384.72 -25.91,-590.53 103.7,110.99 205.42,231.69 311.12,358.84 0,0 1,1.07 1,1.07 1,0 1,1.1 1,1.1 1,1.07 1.97,2.14 1.97,3.22 1,0 1,0 1,0 1,1.1 1,2.17 2,3.24 0,0 1,0 1,0 1,1.07 2,2.14 3,3.24l0 0c411.84,498.92 1046.05,778.02 1402.06,1334.09 99.73,155.17 177.49,331.88 219.39,511.86l0 0c43.87,187.49 54.83,393.32 22.93,589.46 -7.99,17.23 -15.96,34.46 -26.93,49.57 -59.83,88.34 -157.56,116.37 -263.25,116.37zm-2482.03 -3602.46c-76.77,-36.65 -154.56,-68.97 -233.33,-97 1,0 1.97,0 2.97,0 80.79,29.1 156.56,61.44 230.35,97l0 0z"/>
    </clipPath>
    <clipPath id="id3">
     <path d="M5254.3 2144.33c-162.6,-153.81 -309.56,-324.52 -438.85,-509.33 -284.41,-407.34 -336.78,-980.91 161.26,-1232.76 127.9,-64.8 287.8,-92.41 454.49,-92.41 48.3,0 97.31,2.27 146.3,6.78 78.91,28.73 156.49,60.85 232.69,97.46 311.61,152.68 561.99,367.93 806.26,630.48 142.89,205.08 134.72,419.74 25.86,589.9 -89.83,140.3 -247,250.73 -445.67,303.13 -278.95,73.8 -600.11,143.11 -942.35,206.76l0 0z"/>
    </clipPath>
  <radialGradient id="id4" gradientUnits="userSpaceOnUse" gradientTransform="matrix(10.6541 -0 -0 -10.6541 -16835 -11898)" cx="1743.81" cy="-1020.95" r="340.1" fx="1743.81" fy="-1020.95">
   <stop offset="0" style="stop-opacity:1; stop-color:#FEFEFE"/>
   <stop offset="1" style="stop-opacity:1; stop-color:#759AC1"/>
  </radialGradient>
  <radialGradient id="id5" gradientUnits="userSpaceOnUse" gradientTransform="matrix(1.79348 -0 -0 -1.81988 -2179 21205)" cx="2746.48" cy="7519.75" r="4291.41" fx="2746.48" fy="7519.75">
   <stop offset="0" style="stop-opacity:1; stop-color:#E7ECF3"/>
   <stop offset="0.631373" style="stop-opacity:1; stop-color:#E7ECF3"/>
   <stop offset="0.768627" style="stop-opacity:1; stop-color:#C7D3E1"/>
   <stop offset="1" style="stop-opacity:1; stop-color:#FEFEFE"/>
  </radialGradient>
  <radialGradient id="id6" gradientUnits="userSpaceOnUse" gradientTransform="matrix(2.32193 -0 -0 -2.32189 -9582 269)" xlink:href="#id4" cx="7248.53" cy="80.86" r="1223.81" fx="7248.53" fy="80.86">
  </radialGradient>
  <radialGradient id="id7" gradientUnits="userSpaceOnUse" gradientTransform="matrix(0.948724 -0 -0 -0.948724 373 189)" xlink:href="#id4" cx="7278.26" cy="97.22" r="2995.14" fx="7278.26" fy="97.22">
  </radialGradient>
  <radialGradient id="id8" gradientUnits="userSpaceOnUse" gradientTransform="matrix(1.38874 -0 -0 -1.38874 -681 -2449)" xlink:href="#id4" cx="1750.74" cy="-1025.21" r="2609.06" fx="1750.74" fy="-1025.21">
  </radialGradient>
 </defs>
 <g id="Layer_x0020_1">
  <metadata id="CorelCorpID_0Corel-Layer"/>
  <g id="_1415753986880">
   <path class="fil0" d="M7725.61 6427.15c-0.34,0 -0.68,0 -1.02,0 -35.26,-124.41 -9.11,-270.74 -13.6,-398.51 -3.1,-87.44 -13.31,-258.77 -71.6,-329.89 -6.8,-8.33 -17.11,-19.94 -28.29,-19.94 -2.92,0 -5.92,0.76 -8.94,2.66 -8.68,5.34 -9.46,19.96 -17.52,26.73 -4.73,3.95 -9.46,4.9 -14.01,4.9 -2.34,0 -4.65,-0.24 -6.97,-0.51 -2.32,-0.24 -4.56,-0.51 -6.87,-0.51 -4.83,0 -9.55,1.19 -14.28,6.02 -21.15,21.91 -19.86,66.46 -28.88,93.71 -14.72,-4.05 -17.38,-62.68 -19.28,-77.04 -7.38,-54.49 -6.6,-108.91 -14.35,-162.82 -34.05,-236.69 -53.3,-474.26 -115.1,-706.39 -33.53,-125.78 -154.76,-224.55 -225.87,-334.27 -77.21,-119.32 -142.38,-243.39 -261.28,-326.69 -105.92,-74.21 -199.89,-163.87 -278.8,-266.28 -68.26,-88.3 -86.32,-189.14 -166.45,-270.91 -151.32,-154.58 -360.49,-230.57 -544.91,-336.49 -99.04,-56.93 -168.53,-149.95 -261.96,-213.83 -83.91,-57.25 -190.02,-102.58 -284.24,-140.47 -259.31,-104.31 -527.46,-187.44 -799.56,-251.22 -91.15,-21.42 -176.52,-37.24 -264.38,-37.24 -43.5,0 -87.61,3.87 -133.36,12.89 -72.21,14.28 -145.64,30.95 -214.51,56.93 -51.5,19.33 -119.25,87.25 -167.92,96.12 -9.02,1.71 -18.13,2.22 -27.25,2.22 -10.92,0 -21.84,-0.76 -32.58,-1.63 -10.75,-0.85 -21.32,-1.71 -31.63,-1.71 -27.08,0 -52.28,5.85 -73.6,33.1 -67.07,85.64 -2.75,257.41 -42.89,361.69 -103.94,-146.93 -44.38,-392.2 -216.24,-483.42 -146.15,-77.65 -340.71,-140.84 -508.35,-140.84 -7.14,0 -14.18,0.1 -21.15,0.34 -169.21,5.58 -311.49,86.59 -472.77,123.12 -114.96,26.05 -245.9,83.13 -366.44,83.13 -12.79,0 -25.54,-0.58 -38.09,-1.97 -72.82,-8.16 -150.95,-35.51 -226.11,-35.51 -30.78,0 -61.12,4.56 -90.34,17.11 -93.9,40.07 -168.53,136.18 -248.14,198.87 -105.31,82.71 -59.05,196.53 -94.39,304.51 -19.35,59.15 -73.26,72.58 -111.25,115.81 -44.62,50.81 -43.06,106.87 -47.45,171.18 -15.4,228.01 -13.77,472.36 -82.37,692.18 -67.41,-142.55 -54.76,-308.73 -71.02,-462.63 -19.25,-182.44 19.79,-380.7 -74.53,-548.18 -78.43,-139.11 -84.01,-316.9 -119,-470.46 -21.4,-94.05 -63.02,-193.19 -118.39,-272.71 -56.83,-81.5 -147.52,-139.45 -216.05,-213.56 -170.84,-184.68 -266.79,-433.66 -345.63,-668.81 -79.18,-236.42 -115.62,-493.66 -57.17,-739.9 -155.17,655.48 355.08,1552.65 1002.99,1671.97 32.41,5.95 90.71,8.85 171.01,8.85 617.9,0 2543.6,-172.03 4051.84,-452.4 99.75,94.14 205.4,182.27 316.48,264.03 298.52,219.41 651.87,324.13 954.41,529.87 503.11,342.27 831.8,848.91 1446.71,1021.04 89.76,25.1 209.25,57 321.04,57 104.97,0 203.16,-28.22 263.25,-116.76 10.31,-15.13 18.98,-31.73 26.3,-49.45 -20.37,123.12 -57.86,242.3 -114.86,350.62 -67.41,128.02 -162.58,239.69 -217.68,374.24 -59.42,144.69 -112.2,290.26 -203.52,419.81 -55.79,79.11 -64.29,139.11 -64.9,229.92 -0.68,100.68 -32.75,199.72 -42.55,299.62 -3.27,33 0.85,93.63 -14.72,122.42 -19.08,35.34 -68.68,38.87 -90.61,71.19 -37.31,55.03 -32.15,168.53 -39.12,235.4 -6.7,65 -23.81,473.82 -69.21,473.75zm-790.03 -5015.13c-0.17,-0.24 -0.41,-0.61 -0.68,-0.85 0.27,0.24 0.51,0.61 0.68,0.85zm-2.83 -3.51c-0.17,-0.19 -0.44,-0.44 -0.61,-0.61 0.17,0.17 0.34,0.41 0.61,0.61zm-2.58 -3.02c-0.34,-0.44 -0.68,-0.95 -1.12,-1.36 0.44,0.41 0.78,0.85 1.12,1.36zm-2.32 -2.92c-105.5,-127.14 -207.81,-246.93 -311.31,-358.25 -0.27,-0.34 -0.51,-0.78 -0.78,-1.12 103.7,111.69 206.35,231.79 312.09,359.37zm-6705.91 -826.64c0.1,-0.1 0.17,-0.19 0.27,-0.27 -0.1,0.07 -0.17,0.17 -0.27,0.27zm0.61 -0.61c0.17,-0.27 0.51,-0.51 0.68,-0.78 -0.17,0.27 -0.51,0.51 -0.68,0.78zm0.78 -0.78c276.15,-280.46 764.49,-418.52 1101.52,-492.73 277.34,-61.02 561.24,-81.67 846.16,-81.67 296.11,0 593.14,22.28 885.13,44.87 727.86,56.42 1468.71,30.71 2187.29,177.71 -718.58,-147.01 -1459.43,-121.29 -2187.29,-177.71 -291.99,-22.59 -589.02,-44.87 -885.13,-44.87 -284.92,0 -568.82,20.64 -846.16,81.67 -337.03,74.21 -825.37,212.27 -1101.52,492.73zm5653.13 -127.92c-21.84,-11.26 -43.77,-22.1 -65.95,-32.68 -73.09,-35.75 -149.52,-68.17 -229.99,-96.9 -1.02,-0.07 -2.14,-0.17 -3.17,-0.24 -109.04,-39.21 -219.85,-70.51 -330.49,-93.37 239.52,49.35 445.18,124.83 629.6,223.19z"/>
   <path class="fil1" d="M28.76 916.03c1.29,-5.58 2.68,-11.16 4.05,-16.67 32,-124.83 99.21,-231.79 189.14,-323.43 -89.93,91.73 -157.24,198.6 -189.14,323.43 -1.36,5.58 -2.75,11.09 -4.05,16.67zm193.46 -340.36c0.07,-0.1 0.17,-0.17 0.34,-0.34 -0.17,0.17 -0.27,0.24 -0.34,0.34zm1.02 -1.12l0.1 0 -0.1 0zm5023.63 -351.11c-1.22,-0.27 -2.32,-0.44 -3.44,-0.71 1.12,0.27 2.22,0.44 3.44,0.71z"/>
   <g style="clip-path:url(#id0)">
    <image x="-195.11" y="-59.52" width="5830.84" height="2727.14" xlink:href="snowdrift_07_Images\snowdrift_07_ImgID1.png"/>
   </g>
   <path class="fil2" d="M6615.76 1043.2c-226.38,-243.73 -458.08,-446.65 -739.29,-596.58 262.3,134.45 502.09,315.26 689.6,532.77 18.23,21.15 34.83,42.41 49.69,63.8z"/>
   <g style="clip-path:url(#id1)">
    <image x="5745.78" y="353.17" width="921.65" height="749.71" xlink:href="snowdrift_07_Images\snowdrift_07_ImgID2.png"/>
   </g>
   <path class="fil3" d="M8582.79 3850.19c32.51,-196.19 21.59,-402.27 -22.62,-589.87 35.85,152.1 91.66,422.49 22.62,589.87zm-1644.45 -2434.9c-0.93,-1.12 -1.8,-2.14 -2.75,-3.27 0.95,1.02 1.83,2.14 2.75,3.27zm-3.44 -4.12c-0.68,-0.85 -1.46,-1.8 -2.14,-2.66 0.68,0.93 1.46,1.8 2.14,2.66zm-2.75 -3.27c-0.58,-0.85 -1.29,-1.63 -1.97,-2.41 0.68,0.78 1.29,1.56 1.97,2.41zm-3.1 -3.78c-0.34,-0.44 -0.85,-1.05 -1.19,-1.56 0.34,0.51 0.85,1.12 1.19,1.56z"/>
   <g style="clip-path:url(#id2)">
    <image x="5169.74" y="267.17" width="3518.11" height="3801.83" xlink:href="snowdrift_07_Images\snowdrift_07_ImgID3.png"/>
   </g>
   <g style="clip-path:url(#id3)">
    <image x="4430.36" y="224.18" width="2400.43" height="1987.75" xlink:href="snowdrift_07_Images\snowdrift_07_ImgID4.png"/>
   </g>
   <path class="fil4" d="M7990.94 4946.81c-38.53,106.87 -92.51,219.34 -83.57,333.69 6.8,86.83 22.86,230.23 -57.34,289.82 -37.24,27.76 -52.54,42.99 -66.46,90.34 -11.94,40.68 -14.45,109.28 -48.84,137.82 -32.93,-71.19 -14.18,-181.73 -61.39,-242.52 -43.16,-55.64 -99.29,30.95 -134.11,-34.05 -20.03,-37.51 -13.4,-100.77 -16.33,-141.79 -3.97,-56.39 -10.07,-112.37 -17.89,-168.43 -15.3,-109.62 -20.72,-224.48 -49.28,-331.69 -22.25,-83.23 -54.05,-174.18 -108.33,-241.93 -66.7,-83.3 -139.18,-162.85 -202.62,-248.63 -38.7,-52.2 -70.16,-110.06 -111.86,-160.09 -41.36,-49.52 -80.81,-96.97 -132.92,-133.6 -65.17,-45.91 -130.09,-92.34 -188.73,-146.52 -103.94,-96.12 -158.87,-228.43 -255.6,-330.64 -90.95,-96.12 -206.32,-149.44 -316.99,-219 -77.62,-48.81 -163.26,-81.94 -239.59,-132.21 -63.8,-42.04 -114.71,-95.19 -175.4,-140.67 -79.96,-59.76 -172.3,-121.9 -266.28,-156.8 -75.31,-27.95 -152.68,-49.62 -227.75,-78.43 -64.49,-24.66 -114.69,-60 -173.74,-93.27 -67.68,-37.92 -156.05,-50.81 -230.5,-71.38 -161.99,-44.6 -332.81,-77.38 -501.33,-59.39 -115.3,12.28 -227.99,40.65 -342,61.02 -48.94,8.77 -103.7,7.24 -151.15,18.06 -44.79,10.16 -80.3,42.82 -127.58,48.06 -31.05,3.44 -67.24,-3.51 -96.83,9.89 -61.8,28.03 -63.88,104.28 -79.69,160.51 -35.68,-21.13 -32.24,-79.52 -49.18,-113.98 -19.76,-40.24 -54.66,-69.48 -88.03,-98.87 -77.89,-68.7 -187.95,-114.69 -287.07,-140.67 -363.01,-95.27 -767.17,30.27 -1114.07,133.36 -108.43,32.24 -198.01,-32.93 -307.98,-26.22 -88.56,5.34 -133.7,72.65 -192.07,128.95 -66.12,63.9 -131.8,122.71 -192.51,193.46 -53.2,61.98 -53.81,164.31 -91.22,237.71 -43.75,85.81 -122.42,137.06 -143.84,236.45 -32.15,149.49 -0.93,301.59 -8.33,451.96 -1.97,40.85 -2.83,100.94 -17.62,138.26 -44.79,-0.44 -40.58,-172.38 -42.31,-208.49 -7.9,-175.74 -9.87,-352.67 -39.12,-526.61 -27.93,-166.19 -81.76,-328.93 -122.17,-492.54 -33.53,-135.94 -67.14,-316.82 -180.2,-412.26 -110.57,-93.19 -178.57,-145.2 -290.6,-264.89 -20.98,-22.45 -104.89,-146.42 -124.93,-169.21 53.06,106.45 116.08,207.03 195.94,293.35 68.53,74.11 159.22,132.07 216.05,213.56 55.37,79.52 97,178.66 118.39,272.71 35,153.56 40.58,331.35 119,470.46 94.32,167.48 55.27,365.73 74.53,548.18 16.26,153.9 3.61,320.09 71.02,462.63 68.6,-219.83 66.97,-464.17 82.37,-692.18 4.39,-64.31 2.83,-120.37 47.45,-171.18 37.99,-43.23 91.9,-56.66 111.25,-115.81 35.34,-107.99 -10.92,-221.8 94.39,-304.51 79.62,-62.58 154.24,-158.87 248.14,-198.94 100.41,-42.82 213.73,7.04 316.46,18.47 130.6,14.53 277.37,-52.28 404.53,-81.16 161.29,-36.53 303.56,-117.54 472.77,-123.12 172.21,-5.68 377.16,59.59 529.51,140.5 171.86,91.22 112.3,336.49 216.24,483.42 40.14,-104.28 -24.18,-276.05 42.89,-361.69 44.28,-56.56 105.33,-21.06 165.16,-31.97 48.57,-8.87 116.32,-76.79 167.75,-96.12 68.95,-25.98 142.38,-42.65 214.49,-56.93 138.18,-27.25 261.55,-7.65 397.83,24.35 272.1,63.78 540.26,146.91 799.56,251.22 94.22,37.9 200.33,83.23 284.24,140.47 93.44,63.88 162.92,156.9 261.96,213.83 184.41,105.92 393.59,181.9 544.91,336.49 80.13,81.76 98.19,182.61 166.45,270.91 78.91,102.41 172.89,192.07 278.8,266.28 118.91,83.3 184.07,207.45 261.28,326.69 71.11,109.72 192.34,208.49 225.87,334.27 61.8,232.13 81.06,469.77 115.1,706.39 7.75,53.91 6.97,108.33 14.35,162.75 1.9,14.43 4.56,72.99 19.28,77.11 9.02,-27.25 7.73,-71.8 28.88,-93.71 13.4,-13.84 27.42,2.32 42.14,-9.89 8.07,-6.78 8.85,-21.4 17.52,-26.73 14.45,-8.94 28.64,6.8 37.24,17.21 58.37,71.19 68.51,242.52 71.6,329.96 4.48,127.78 -21.67,274.1 13.6,398.51 46.16,6.09 63.44,-408.31 70.24,-473.75 6.87,-66.87 1.8,-180.37 39.04,-235.4 22.01,-32.32 71.6,-35.92 90.68,-71.19 15.57,-28.78 11.45,-89.42 14.72,-122.42 9.8,-99.9 41.87,-198.94 42.55,-299.62 0.61,-90.81 9.11,-150.81 64.9,-229.92 91.32,-129.56 144.11,-275.12 203.52,-419.81 21.74,-53.06 50.28,-102.21 80.38,-150.54 -129.99,162.24 -273.73,339.17 -339.68,522.29z"/>
  </g>
 </g>
</svg>
