<?xml version="1.0" encoding="UTF-8"?>
<!DOCTYPE svg PUBLIC "-//W3C//DTD SVG 1.1//EN" "http://www.w3.org/Graphics/SVG/1.1/DTD/svg11.dtd">
<!-- Creator: CorelDRAW 2021 (64-Bit) -->
<svg xmlns="http://www.w3.org/2000/svg" xml:space="preserve" width="42.8381mm" height="42.1391mm" version="1.1" style="shape-rendering:geometricPrecision; text-rendering:geometricPrecision; image-rendering:optimizeQuality; fill-rule:evenodd; clip-rule:evenodd"
viewBox="0 0 1949.38 1917.57"
 xmlns:xlink="http://www.w3.org/1999/xlink"
 xmlns:xodm="http://www.corel.com/coreldraw/odm/2003">
 <defs>
  <style type="text/css">
   <![CDATA[
    .str0 {stroke:#00A0E3;stroke-width:8.03;stroke-linejoin:bevel;stroke-miterlimit:22.9256}
    .fil0 {fill:#FEFEFE}
   ]]>
  </style>
 </defs>
 <g id="Layer_x0020_1">
  <metadata id="CorelCorpID_0Corel-Layer"/>
  <g id="_2102133751232">
   <polygon class="fil0 str0" points="771.68,1434.47 934.14,1348.96 934.14,1434.47 769.54,1601.19 848.63,1601.19 972.61,1477.21 1096.59,1601.19 1177.82,1601.19 1013.22,1436.6 1013.22,1351.1 1175.68,1432.33 1231.26,1261.32 1291.11,1319.04 1291.11,1549.89 1348.82,1490.04 1348.82,1316.9 1526.24,1316.9 1581.82,1261.32 1348.82,1261.32 1286.83,1201.47 1457.84,1145.89 1380.89,983.44 1459.98,983.44 1624.57,1145.89 1624.57,1062.52 1502.73,942.82 1624.57,823.12 1624.57,737.61 1457.84,902.21 1380.89,902.21 1457.84,746.17 1286.83,684.18 1348.82,624.32 1579.68,624.32 1524.1,570.89 1344.55,570.89 1344.55,391.33 1286.83,333.62 1286.83,568.75 1233.39,622.18 1177.82,451.18 1013.22,536.68 1013.22,453.32 1175.68,290.86 1092.31,290.86 972.61,410.57 850.77,290.86 763.13,290.86 932,459.73 932,532.41 771.68,457.6 713.97,628.6 654.11,566.61 654.11,335.75 594.26,397.74 594.26,566.61 423.25,566.61 365.54,624.32 594.26,624.32 654.11,684.18 483.11,739.75 568.61,906.48 487.38,906.48 318.51,737.61 318.51,820.98 442.49,944.96 318.51,1068.94 316.38,1152.3 485.24,985.57 568.61,985.57 483.11,1145.89 654.11,1201.47 598.54,1261.32 361.26,1261.32 418.98,1319.04 596.4,1319.04 596.4,1490.04 654.11,1552.03 654.11,1314.76 713.97,1259.18 771.68,1434.47 "/>
   <polygon class="fil0 str0" points="927.72,1060.39 927.72,1319.04 739.62,1502.86 831.53,1502.86 929.86,1406.67 929.86,1505 833.67,1693.11 972.61,1915.41 1113.69,1693.11 1017.5,1507.14 1017.5,1408.81 1111.55,1500.73 1201.33,1500.73 1017.5,1319.04 1017.5,1053.97 1205.6,1242.08 1205.6,1500.73 1267.6,1438.74 1267.6,1306.21 1336,1374.61 1402.26,1566.99 1673.73,1641.81 1605.33,1370.33 1400.12,1306.21 1333.86,1239.94 1466.39,1239.94 1530.51,1175.82 1267.6,1175.82 1083.76,989.85 1348.82,989.85 1530.51,1175.82 1530.51,1081.76 1436.46,987.71 1530.51,987.71 1714.35,1079.63 1947.34,942.82 1714.35,806.02 1530.51,895.8 1440.74,895.8 1526.24,808.16 1526.24,718.38 1348.82,897.94 1085.9,897.94 1265.46,714.1 1528.38,714.1 1457.84,647.84 1331.72,647.84 1400.12,579.44 1603.19,515.31 1665.18,250.25 1400.12,312.24 1333.86,515.31 1271.87,579.44 1271.87,444.77 1209.88,382.78 1209.88,643.56 1017.5,831.67 1017.5,570.89 1207.74,382.78 1113.69,382.78 1017.5,478.97 1017.5,384.92 1109.41,198.95 972.61,2.29 835.81,198.95 927.72,389.19 927.72,472.56 840.08,387.05 739.62,387.05 927.72,575.16 927.72,833.8 741.75,649.98 739.62,389.19 677.62,451.18 677.62,581.57 611.36,515.31 538.68,320.79 275.76,250.25 346.3,511.03 538.68,579.44 611.36,647.84 476.69,647.84 414.71,709.83 675.49,709.83 859.32,897.94 598.54,897.94 412.57,711.96 412.57,803.88 508.76,900.07 418.98,900.07 224.46,803.88 2.15,944.96 226.6,1086.04 416.84,989.85 508.76,989.85 412.57,1088.18 412.57,1177.95 600.67,985.57 867.87,985.57 675.49,1177.95 412.57,1177.95 472.42,1239.94 611.36,1239.94 545.1,1304.07 339.89,1370.33 275.76,1648.22 545.1,1566.99 611.36,1370.33 677.62,1301.93 677.62,1443.02 739.62,1502.86 739.62,1246.36 927.72,1060.39 "/>
   <polygon class="fil0 str0" points="1370.2,801.74 1370.2,801.74 1370.2,797.47 1370.2,791.06 1370.2,786.78 1368.06,782.51 1365.92,780.37 1361.65,773.96 1359.51,771.82 1357.37,767.54 1350.96,763.27 1348.82,761.13 1344.55,758.99 1340.27,756.85 1336,754.72 1331.72,752.58 1327.45,752.58 1323.17,752.58 1316.76,752.58 1312.48,752.58 1308.21,754.72 1301.79,756.85 1299.66,758.99 1295.38,761.13 1293.25,763.27 1286.83,767.54 1284.7,771.82 1280.42,773.96 1278.28,780.37 1276.15,782.51 1274.01,786.78 1274.01,791.06 1274.01,797.47 1274.01,801.74 1274.01,806.02 1274.01,810.29 1274.01,814.57 1276.15,818.84 1278.28,825.25 1280.42,827.39 1284.7,831.67 1286.83,835.94 1293.25,838.08 1295.38,840.22 1299.66,844.49 1301.79,846.63 1308.21,846.63 1312.48,846.63 1316.76,850.91 1323.17,850.91 1327.45,850.91 1331.72,846.63 1336,846.63 1340.27,846.63 1344.55,844.49 1348.82,840.22 1350.96,838.08 1357.37,835.94 1359.51,831.67 1361.65,827.39 1365.92,825.25 1368.06,818.84 1370.2,814.57 1370.2,810.29 1370.2,806.02 1370.2,801.74 "/>
   <polygon class="fil0 str0" points="1370.2,1092.45 1370.2,1092.45 1370.2,1088.18 1370.2,1081.76 1370.2,1079.63 1368.06,1075.35 1365.92,1071.08 1361.65,1066.8 1359.51,1062.52 1357.37,1060.39 1350.96,1053.97 1348.82,1053.97 1344.55,1051.84 1340.27,1049.7 1336,1047.56 1331.72,1045.42 1327.45,1045.42 1323.17,1045.42 1316.76,1045.42 1312.48,1045.42 1308.21,1047.56 1301.79,1049.7 1299.66,1051.84 1295.38,1053.97 1293.25,1053.97 1286.83,1060.39 1284.7,1062.52 1280.42,1066.8 1278.28,1071.08 1276.15,1075.35 1274.01,1079.63 1274.01,1081.76 1274.01,1088.18 1274.01,1092.45 1274.01,1096.73 1274.01,1103.14 1274.01,1109.55 1276.15,1113.83 1278.28,1115.97 1280.42,1122.38 1284.7,1124.52 1286.83,1126.65 1293.25,1130.93 1295.38,1135.2 1299.66,1135.2 1301.79,1137.34 1308.21,1139.48 1312.48,1139.48 1316.76,1141.62 1323.17,1141.62 1327.45,1141.62 1331.72,1139.48 1336,1139.48 1340.27,1137.34 1344.55,1135.2 1348.82,1135.2 1350.96,1130.93 1357.37,1126.65 1359.51,1124.52 1361.65,1122.38 1365.92,1115.97 1368.06,1113.83 1370.2,1109.55 1370.2,1103.14 1370.2,1096.73 1370.2,1092.45 "/>
   <polygon class="fil0 str0" points="1167.13,1295.52 1167.13,1295.52 1167.13,1289.11 1164.99,1284.83 1164.99,1280.56 1162.86,1276.28 1160.72,1269.87 1158.58,1267.73 1156.44,1263.46 1152.17,1261.32 1147.89,1259.18 1145.75,1252.77 1141.48,1252.77 1135.07,1248.49 1135.07,1248.49 1126.51,1246.36 1122.24,1244.22 1117.96,1244.22 1113.69,1244.22 1109.41,1246.36 1103,1248.49 1100.86,1248.49 1094.45,1252.77 1092.31,1252.77 1085.9,1259.18 1083.76,1261.32 1079.49,1263.46 1077.35,1267.73 1075.21,1269.87 1075.21,1276.28 1070.94,1280.56 1070.94,1284.83 1068.8,1289.11 1068.8,1295.52 1068.8,1299.8 1070.94,1304.07 1070.94,1306.21 1075.21,1312.62 1075.21,1316.9 1077.35,1319.04 1079.49,1325.45 1083.76,1327.59 1085.9,1331.86 1092.31,1336.14 1094.45,1338.27 1100.86,1338.27 1103,1340.41 1109.41,1342.55 1113.69,1342.55 1117.96,1342.55 1122.24,1342.55 1126.51,1342.55 1135.07,1340.41 1135.07,1338.27 1141.48,1338.27 1145.75,1336.14 1147.89,1331.86 1152.17,1327.59 1156.44,1325.45 1158.58,1319.04 1160.72,1316.9 1162.86,1312.62 1164.99,1306.21 1164.99,1304.07 1167.13,1299.8 1167.13,1295.52 "/>
   <polygon class="fil0 str0" points="878.56,1295.52 878.56,1295.52 878.56,1289.11 878.56,1284.83 876.42,1280.56 874.28,1276.28 870.01,1269.87 867.87,1267.73 867.87,1263.46 863.59,1261.32 859.32,1259.18 857.18,1252.77 852.91,1252.77 846.49,1248.49 844.36,1248.49 837.95,1246.36 835.81,1244.22 829.39,1244.22 825.12,1244.22 820.84,1246.36 814.43,1248.49 810.16,1248.49 803.74,1252.77 801.6,1252.77 797.33,1259.18 793.05,1261.32 793.05,1263.46 788.78,1267.73 786.64,1269.87 784.5,1276.28 782.36,1280.56 782.36,1284.83 782.36,1289.11 782.36,1295.52 782.36,1299.8 782.36,1304.07 782.36,1306.21 784.5,1312.62 786.64,1316.9 788.78,1319.04 793.05,1325.45 793.05,1327.59 797.33,1331.86 801.6,1336.14 803.74,1338.27 810.16,1338.27 814.43,1340.41 820.84,1342.55 825.12,1342.55 829.39,1342.55 835.81,1342.55 837.95,1342.55 844.36,1340.41 846.49,1338.27 852.91,1338.27 857.18,1336.14 859.32,1331.86 863.59,1327.59 867.87,1325.45 867.87,1319.04 870.01,1316.9 874.28,1312.62 876.42,1306.21 878.56,1304.07 878.56,1299.8 878.56,1295.52 "/>
   <polygon class="fil0 str0" points="675.49,1092.45 675.49,1092.45 675.49,1088.18 673.35,1081.76 673.35,1079.63 671.21,1075.35 669.07,1071.08 664.8,1066.8 662.66,1062.52 660.52,1060.39 654.11,1053.97 654.11,1053.97 647.7,1051.84 643.42,1049.7 639.15,1047.56 634.87,1045.42 630.6,1045.42 626.33,1045.42 622.05,1045.42 615.64,1045.42 611.36,1047.56 604.95,1049.7 602.81,1051.84 598.54,1053.97 594.26,1053.97 589.99,1060.39 587.85,1062.52 583.57,1066.8 581.43,1071.08 579.3,1075.35 579.3,1079.63 579.3,1081.76 577.16,1088.18 577.16,1092.45 577.16,1096.73 579.3,1103.14 579.3,1109.55 579.3,1113.83 581.43,1115.97 583.57,1122.38 587.85,1124.52 589.99,1126.65 594.26,1130.93 598.54,1135.2 602.81,1135.2 604.95,1137.34 611.36,1139.48 615.64,1139.48 622.05,1141.62 626.33,1141.62 630.6,1141.62 634.87,1139.48 639.15,1139.48 643.42,1137.34 647.7,1135.2 654.11,1135.2 654.11,1130.93 660.52,1126.65 662.66,1124.52 664.8,1122.38 669.07,1115.97 671.21,1113.83 673.35,1109.55 673.35,1103.14 675.49,1096.73 675.49,1092.45 "/>
   <polygon class="fil0 str0" points="675.49,803.88 675.49,803.88 675.49,797.47 675.49,795.33 675.49,788.92 673.35,786.78 671.21,780.37 669.07,776.09 664.8,771.82 662.66,769.68 660.52,767.54 654.11,763.27 654.11,761.13 645.56,761.13 643.42,758.99 637.01,756.85 632.74,756.85 628.46,756.85 622.05,756.85 619.91,756.85 613.5,758.99 611.36,761.13 602.81,761.13 600.67,763.27 596.4,767.54 594.26,769.68 589.99,771.82 587.85,776.09 585.71,780.37 583.57,786.78 581.43,788.92 579.3,795.33 579.3,797.47 579.3,803.88 579.3,810.29 579.3,814.57 581.43,818.84 583.57,823.12 585.71,825.25 587.85,831.67 589.99,835.94 594.26,838.08 596.4,840.22 600.67,846.63 602.81,846.63 611.36,846.63 613.5,850.91 619.91,853.04 622.05,853.04 628.46,853.04 632.74,853.04 637.01,853.04 643.42,850.91 645.56,846.63 654.11,846.63 654.11,846.63 660.52,840.22 662.66,838.08 664.8,835.94 669.07,831.67 671.21,825.25 673.35,823.12 675.49,818.84 675.49,814.57 675.49,810.29 675.49,803.88 "/>
   <polygon class="fil0 str0" points="878.56,598.67 878.56,598.67 878.56,592.26 878.56,587.99 876.42,581.57 874.28,579.44 870.01,573.02 867.87,570.89 867.87,566.61 863.59,562.34 859.32,558.06 857.18,558.06 852.91,553.79 846.49,551.65 844.36,549.51 837.95,549.51 835.81,547.37 829.39,547.37 825.12,547.37 820.84,549.51 814.43,549.51 810.16,551.65 803.74,553.79 801.6,558.06 797.33,558.06 793.05,562.34 793.05,566.61 788.78,570.89 786.64,573.02 784.5,579.44 782.36,581.57 782.36,587.99 782.36,592.26 782.36,598.67 782.36,600.81 782.36,607.22 782.36,611.5 784.5,615.77 786.64,622.18 788.78,624.32 793.05,628.6 793.05,632.87 797.33,635.01 801.6,639.29 803.74,641.42 810.16,643.56 814.43,643.56 820.84,643.56 825.12,645.7 829.39,645.7 835.81,645.7 837.95,643.56 844.36,643.56 846.49,643.56 852.91,641.42 857.18,639.29 859.32,635.01 863.59,632.87 867.87,628.6 867.87,624.32 870.01,622.18 874.28,615.77 876.42,611.5 878.56,607.22 878.56,600.81 878.56,598.67 "/>
   <polygon class="fil0 str0" points="1167.13,598.67 1167.13,598.67 1167.13,592.26 1164.99,587.99 1164.99,581.57 1162.86,579.44 1160.72,573.02 1156.44,570.89 1156.44,566.61 1152.17,562.34 1147.89,558.06 1145.75,558.06 1141.48,553.79 1135.07,551.65 1132.93,549.51 1126.51,549.51 1122.24,547.37 1117.96,547.37 1113.69,547.37 1107.28,549.51 1103,549.51 1100.86,551.65 1094.45,553.79 1092.31,558.06 1085.9,558.06 1083.76,562.34 1079.49,566.61 1077.35,570.89 1075.21,573.02 1070.94,579.44 1070.94,581.57 1070.94,587.99 1068.8,592.26 1068.8,598.67 1068.8,600.81 1070.94,607.22 1070.94,611.5 1070.94,615.77 1075.21,622.18 1077.35,624.32 1079.49,628.6 1083.76,632.87 1085.9,635.01 1092.31,639.29 1094.45,641.42 1100.86,643.56 1103,643.56 1107.28,643.56 1113.69,645.7 1117.96,645.7 1122.24,645.7 1126.51,643.56 1132.93,643.56 1135.07,643.56 1141.48,641.42 1145.75,639.29 1147.89,635.01 1152.17,632.87 1156.44,628.6 1156.44,624.32 1160.72,622.18 1162.86,615.77 1164.99,611.5 1164.99,607.22 1167.13,600.81 1167.13,598.67 "/>
  </g>
 </g>
</svg>
