<?xml version="1.0" encoding="UTF-8"?>
<!DOCTYPE svg PUBLIC "-//W3C//DTD SVG 1.1//EN" "http://www.w3.org/Graphics/SVG/1.1/DTD/svg11.dtd">
<!-- Creator: CorelDRAW 2021 (64-Bit) -->
<svg xmlns="http://www.w3.org/2000/svg" xml:space="preserve" width="19.072mm" height="20.9455mm" version="1.1" style="shape-rendering:geometricPrecision; text-rendering:geometricPrecision; image-rendering:optimizeQuality; fill-rule:evenodd; clip-rule:evenodd"
viewBox="0 0 259.32 284.8"
 xmlns:xlink="http://www.w3.org/1999/xlink"
 xmlns:xodm="http://www.corel.com/coreldraw/odm/2003">
 <defs>
  <style type="text/css">
   <![CDATA[
    .fil2 {fill:#C7D3E1;fill-rule:nonzero}
    .fil1 {fill:#C4D0E0;fill-rule:nonzero}
    .fil0 {fill:url(#id1)}
   ]]>
  </style>
    <clipPath id="id0">
     <path d="M73.37 166.17c-31.46,0 -67.72,-21.79 -71.27,-60.04 -2.36,-26.1 11.82,-31.25 37.59,-40.55 17.14,-6.22 38.48,-13.91 63.81,-30.46 35.01,-22.92 65.36,-34.53 90.1,-34.53 18.17,0 33.6,6.51 44.68,18.86 9.45,10.53 14.62,23.61 14.48,36.83 -0.15,18.61 -18.91,102.26 -176.14,109.85 -1.11,0.05 -2.14,0.05 -3.25,0.05l0 0z"/>
    </clipPath>
  <radialGradient id="id1" gradientUnits="userSpaceOnUse" gradientTransform="matrix(1.98828 -0 -0 -1.98829 -105 9)" cx="106.32" cy="2.85" r="142.4" fx="106.32" fy="2.85">
   <stop offset="0" style="stop-opacity:1; stop-color:#FEFEFE"/>
   <stop offset="0.65098" style="stop-opacity:1; stop-color:#C7D3E1"/>
   <stop offset="1" style="stop-opacity:1; stop-color:#E7ECF3"/>
  </radialGradient>
 </defs>
 <g id="Layer_x0020_1">
  <metadata id="CorelCorpID_0Corel-Layer"/>
  <g id="_1415742032160">
   <path class="fil0" d="M65.68 284.8c-0.5,0 -1.07,-0.28 -1.73,-0.89 -9.67,-8.86 -5.64,-52.39 -15.32,-59.64 -9.67,-7.26 -14.51,-26.6 -9.67,-49.98 4.84,-23.37 -34.66,-24.18 -38.69,-67.71 -4.03,-43.53 37.48,-29.3 102.37,-71.74 37.81,-24.73 67.78,-34.84 90.97,-34.84 68.26,0 77.59,87.72 54.12,148.49 -6.98,18.08 5.72,38.31 -0.81,50.78 -4.01,7.66 -7.2,10.37 -10.15,10.37 -3.58,0 -6.83,-3.97 -10.8,-7.94 -0.46,-0.46 -0.86,-0.67 -1.24,-0.67 -2.42,0 -3.23,8.9 -4.11,17.81 -0.88,8.9 -1.84,17.81 -4.55,17.81 -0.82,0 -1.81,-0.82 -3,-2.71 -7.66,-12.13 -14.82,-28.81 -23.87,-28.81 -2.38,0 -4.88,1.15 -7.56,3.83 -7.47,7.47 -21.15,10.34 -34.01,10.34 -9.35,0 -18.26,-1.52 -24.02,-3.89 -1.99,-0.82 -4.08,-1.2 -6.21,-1.2 -12.54,0 -26.39,13.09 -28.45,26.18 -0.6,3.78 -1.49,5.2 -2.6,5.2 -3.4,0 -8.86,-13.26 -14.33,-13.26 -6.76,0 0.48,52.48 -6.33,52.48zm127.92 -284.21c-24.78,0 -55.09,11.61 -90.09,34.51 -25.31,16.55 -46.66,24.27 -63.82,30.47 -25.78,9.32 -39.99,14.45 -37.57,40.58 3.54,38.24 39.79,60.04 71.26,60.04 1.08,0 2.15,-0.02 3.22,-0.08 157.28,-7.59 176.02,-91.24 176.17,-109.84 0.1,-13.23 -5.04,-26.32 -14.48,-36.83 -11.07,-12.34 -26.53,-18.86 -44.69,-18.86z"/>
   <path class="fil1" d="M247.63 128.1c-6.62,8.35 -17.23,15.73 -24.25,19.91 -7.71,4.59 -14.86,9.76 -23.23,13.27 -3.45,1.45 -9.89,3.53 -12,6.65 8.61,2.95 19.23,-6.38 28.04,-6.29 -0.27,1.05 -0.27,2.43 -0.67,3.44 3.38,0.44 9.31,-2.6 12.43,-3.89 5.83,-2.41 10.7,-4.81 15.37,-8.99 0.36,-1.62 0.82,-3.23 1.44,-4.84 3.86,-10 6.73,-20.34 8.64,-30.68 -0.71,3.87 -2.86,7.74 -5.77,11.42z"/>
   <g style="clip-path:url(#id0)">
    <image x="-3.88" y="-3.91" width="260.56" height="172.78" xlink:href="snowdrift_01_Images\snowdrift_01_ImgID1.png"/>
   </g>
   <path class="fil1" d="M41.9 172.39c13.43,20.91 34.22,22.18 35.44,19.16 0.57,-1.42 6.09,-3.29 6.87,-4.75 0.78,-1.48 51.61,1.09 52.82,-2.64 1.33,-4.1 -30.82,-7.18 -49.12,-11.09 -19.17,-4.09 -39.89,-12.7 -57.01,-22.85 -8.54,-5.06 -20.22,-15.08 -25.12,-23.2 1.33,3.65 3.47,6.24 5.57,8.99 1.98,2.59 4.17,5 6.5,7.29 6.5,6.39 15.94,11.85 19.97,20.32 1.47,3.1 2.4,6.15 4.09,8.78z"/>
   <path class="fil2" d="M246.54 188.85c-0.49,4.54 -2.78,11.6 -7.44,13.65 -3.21,1.4 -7.94,2.48 -12.8,-0.46 7.07,7.13 11.89,13.9 20.61,-2.76 3.59,-6.85 1.37,-16.06 -0.2,-25.96 0.09,5.36 0.6,8.38 -0.17,15.54z"/>
   <path class="fil2" d="M220.2 206.5c-0.92,2.77 -0.81,5.59 -2.03,8.26 -0.97,2.12 -1.52,5.01 -3.65,6.36 -1.68,1.06 -4.02,0.66 -5.62,-0.37 -2.4,-1.55 -3.93,-4.22 -5.56,-6.48 -2.72,-3.78 -6.44,-9.5 -11.91,-8.79 1.88,0.83 3.61,1.8 5.12,3.22 7.24,6.8 11.27,16.96 16.51,25.25 8.06,12.77 6.61,-23.2 10.1,-31.31 -1.24,0.61 -2.27,1.78 -2.96,3.88z"/>
   <path class="fil2" d="M174.07 210.44c-2.05,0.39 -4.08,0.28 -6.24,0.36 -6.44,0.24 -12.82,-0.49 -19.22,-1.08 -5.11,-0.47 -10.47,-1.37 -15.54,-0.2 -4.87,1.11 -9.41,2.62 -14.41,3.26 -4.78,0.61 -9.79,0.4 -14.26,2.47 -6.33,2.95 -12.47,12.19 -16.27,17.82 -1.79,2.64 -3.55,4.24 -7.01,3.64 -3.44,-0.59 -3.94,-3.66 -6.73,-4.87 -6.66,-2.89 -8.92,9 -9.52,13.24 -0.31,2.22 -2.8,18.94 -6.11,11.11 -3.73,-8.8 -1.29,-18.94 -4.99,-27.91 -2.17,-5.28 -6.37,-8.02 -9.69,-12.37 -4.38,-5.74 -4.95,-13.22 -6.88,-19.93 0.71,13.21 4.99,23.45 11.44,28.29 9.67,7.25 5.64,50.78 15.32,59.64 9.67,8.87 0.8,-51.58 8.06,-51.58 7.26,0 14.51,23.37 16.93,8.06 2.42,-15.31 20.96,-30.63 34.66,-24.99 13.7,5.64 45.14,6.45 58.04,-6.45 0.99,-0.99 1.96,-1.76 2.91,-2.35 -3.2,1 -6.22,2.68 -9.44,3.59l-1.03 0.24z"/>
  </g>
 </g>
</svg>
