<?xml version="1.0" encoding="UTF-8"?>
<!DOCTYPE svg PUBLIC "-//W3C//DTD SVG 1.1//EN" "http://www.w3.org/Graphics/SVG/1.1/DTD/svg11.dtd">
<!-- Creator: CorelDRAW 2021 (64-Bit) -->
<svg xmlns="http://www.w3.org/2000/svg" xml:space="preserve" width="22.2285mm" height="24.0523mm" version="1.1" style="shape-rendering:geometricPrecision; text-rendering:geometricPrecision; image-rendering:optimizeQuality; fill-rule:evenodd; clip-rule:evenodd"
viewBox="0 0 508.97 550.73"
 xmlns:xlink="http://www.w3.org/1999/xlink"
 xmlns:xodm="http://www.corel.com/coreldraw/odm/2003">
 <defs>
  <style type="text/css">
   <![CDATA[
    .fil2 {fill:#C7D3E1;fill-rule:nonzero}
    .fil1 {fill:#C4D0E0;fill-rule:nonzero}
    .fil0 {fill:url(#id5)}
    .fil4 {fill:url(#id6)}
    .fil3 {fill:url(#id7)}
    .fil6 {fill:url(#id8)}
    .fil5 {fill:url(#id9)}
   ]]>
  </style>
    <clipPath id="id0">
     <path d="M366.02 292.29c-27.25,0 -54.32,-2.75 -81.31,-6.46 0.09,-0.09 0.26,-0.17 0.35,-0.26 41.78,-28.85 74.25,-83.2 86.79,-131.53 11.14,-43.07 5.92,-118.6 -36.65,-144.88 -9.75,-6.03 -22.28,-8.53 -35.69,-8.53 -25.16,0 -53.19,8.79 -70.86,18.52 21.24,-11.71 45.18,-19.12 68.94,-19.12 17.41,0 34.82,3.96 50.84,13.26 17.32,10.08 30.81,24.46 43.35,39.88 11.14,13.78 21.59,28.25 33.25,41.08 0,0.09 0,0.09 0.09,0.17 0,0 0,0 0,0 0.09,0 0.09,0.08 0.09,0.08 0,0 0.09,0.09 0.09,0.09 0,0 0,0 0,0 1.91,2.07 3.83,4.14 5.92,6.12 34.65,34.97 91.66,71.92 72.16,128.34 -14.71,42.55 -77.91,61.07 -121.17,62.88 -5.4,0.17 -10.79,0.34 -16.19,0.34l0 0z"/>
    </clipPath>
    <clipPath id="id1">
     <path d="M9.94 178.2c1.28,-3.14 2.87,-6.18 4.76,-9.07 0.45,-0.68 0.92,-1.37 1.4,-2.03 4.6,-5.71 10.32,-11.19 17.3,-16.42 -10.34,7.78 -18.08,17.17 -23.46,27.52l0 0z"/>
    </clipPath>
    <clipPath id="id2">
     <path d="M127.96 340.59c-42.42,0 -80.57,-17.21 -107.24,-55.9 -1.09,-1.54 -2.1,-3.13 -3.1,-4.72 -8.97,-20.34 -16.27,-40.98 -17.44,-60.77 0.08,-14.27 3.18,-28.35 9.72,-41.03 -9.31,22.92 -2.85,51.72 11.32,70.76 21.13,28.2 55,33.47 88.2,33.47 5.03,0 9.98,-0.15 14.84,-0.3 28.34,-1.04 55.67,-3.08 83.09,-3.08 18.7,0 37.4,0.95 56.59,3.83 6.88,1.04 13.83,2.04 20.71,2.98 -33.12,22.92 -76.47,40.63 -115.54,49.78 -14,3.28 -27.75,4.97 -41.17,4.97l0 0z"/>
    </clipPath>
    <clipPath id="id3">
     <path d="M33.41 150.69c0.19,-0.14 0.37,-0.3 0.56,-0.42 30.74,-22.68 68.29,-33.8 99.46,-55.9 0.22,-0.14 0.43,-0.3 0.65,-0.46 -31.33,22.42 -69.18,33.52 -100.11,56.36 -0.19,0.14 -0.37,0.28 -0.56,0.42l0 0z"/>
    </clipPath>
    <clipPath id="id4">
     <path d="M284.66 285.86c-6.96,-0.94 -13.8,-1.96 -20.76,-2.98 -19.08,-2.89 -37.82,-3.91 -56.45,-3.91 -27.5,0 -54.88,2.12 -83.17,3.14 -4.94,0.17 -9.88,0.26 -14.81,0.26 -33.33,0 -67.12,-5.27 -88.22,-33.49 -14.14,-18.95 -20.65,-47.76 -11.34,-70.71 5.39,-10.37 13.13,-19.72 23.46,-27.54 0.22,-0.08 0.45,-0.25 0.56,-0.42 30.98,-22.78 68.8,-33.91 100.12,-56.35l0 0c32.77,-23.37 58.81,-54.9 94.5,-74.62l0 0 0 0c0,0 0,-0.08 0.11,-0.08 17.73,-9.77 45.68,-18.53 70.93,-18.53 13.36,0 25.81,2.46 35.58,8.5 42.65,26.35 47.81,101.82 36.59,144.91 -12.46,48.27 -44.89,102.67 -86.64,131.56 -0.22,0.08 -0.34,0.17 -0.45,0.26l0 0z"/>
    </clipPath>
  <radialGradient id="id5" gradientUnits="userSpaceOnUse" gradientTransform="matrix(-1.99103 -2.43831E-16 2.50962E-16 -2.04926 731 -34)" cx="244.3" cy="-11.01" r="275.36" fx="244.3" fy="-11.01">
   <stop offset="0" style="stop-opacity:1; stop-color:#FEFEFE"/>
   <stop offset="0.658824" style="stop-opacity:1; stop-color:#C7D3E1"/>
   <stop offset="1" style="stop-opacity:1; stop-color:#E7ECF3"/>
  </radialGradient>
  <radialGradient id="id6" gradientUnits="userSpaceOnUse" gradientTransform="matrix(-5.51075 -6.74872E-16 6.74872E-16 -5.51075 2595 -262)" cx="398.61" cy="-40.19" r="58.67" fx="398.61" fy="-40.19">
   <stop offset="0" style="stop-opacity:1; stop-color:#FEFEFE"/>
   <stop offset="0.4" style="stop-opacity:1; stop-color:#FEFEFE"/>
   <stop offset="1" style="stop-opacity:1; stop-color:#759AC1"/>
  </radialGradient>
  <radialGradient id="id7" gradientUnits="userSpaceOnUse" gradientTransform="matrix(-101.653 -1.24489E-14 1.24534E-14 -101.69 40955 -4122)" xlink:href="#id6" cx="398.96" cy="-40.14" r="3.18" fx="398.96" fy="-40.14">
  </radialGradient>
  <radialGradient id="id8" gradientUnits="userSpaceOnUse" gradientTransform="matrix(-5.99189 -7.33795E-16 7.338E-16 -5.99193 767 376)" cx="109.67" cy="53.8" r="47.53" fx="109.67" fy="53.8">
   <stop offset="0" style="stop-opacity:1; stop-color:#FEFEFE"/>
   <stop offset="0.0117647" style="stop-opacity:1; stop-color:#FEFEFE"/>
   <stop offset="1" style="stop-opacity:1; stop-color:#759AC1"/>
  </radialGradient>
  <radialGradient id="id9" gradientUnits="userSpaceOnUse" gradientTransform="matrix(-9.30173 -1.13913E-15 1.14799E-15 -9.37403 1121 553)" xlink:href="#id8" cx="108.81" cy="53.33" r="30.38" fx="108.81" fy="53.33">
  </radialGradient>
 </defs>
 <g id="Layer_x0020_1">
  <metadata id="CorelCorpID_0Corel-Layer"/>
  <g id="_1415197451824">
   <path class="fil0" d="M366.46 550.72c-2.5,0 -7.21,-35.87 -7.63,-39.14 -2.25,-17.28 -3.33,-33.25 -13.51,-33.25 -3.89,0 -9.11,2.33 -16.22,7.79 -3.31,-1.94 -3.88,-4.81 -4.51,-8.78 -2.41,-15.25 -13.07,-19.93 -25.19,-19.93 -5.29,0 -10.86,0.89 -16.13,2.18 -13.11,3.21 -26.85,-2.31 -35.41,9.81 -11.27,15.97 -0.95,79.8 -25.25,81.01 -4.85,-15.32 0.02,-31.06 -2.12,-46.62 -2.27,-16.39 -6.32,-17.69 -12.75,-17.69 -0.6,0 -1.23,0.01 -1.87,0.02 -0.65,0.01 -1.32,0.03 -2,0.03 -4.14,0 -9.06,-0.41 -14.88,-3.7 -6.98,-3.95 -6.08,-12.86 -11.54,-17.1 -4.55,-3.54 -8.31,-2.77 -13.36,-4.27 -5.71,-1.7 -7.16,-3.62 -12.05,-6.13 -3.85,-1.98 -8.13,-3.1 -12.29,-3.1 -6.07,0 -11.94,2.37 -16.04,7.95 -6.89,9.35 -1.62,32.77 -10.94,38.76 -1.53,0.98 -2.82,1.42 -3.89,1.42 -7.75,0.01 -4.61,-22.84 -4.55,-28.32 0.1,-9.23 3.29,-24.9 -1.62,-33.17 -2.5,-4.22 -4.66,-5.88 -6.47,-5.88 -5.45,0 -7.83,15.06 -7.5,21.38 0.27,5.1 0.72,12.21 -4.07,12.21 -1.03,0 -2.29,-0.32 -3.84,-1.06 -6.94,-3.3 -5.2,-13.56 -4.86,-19.32 0.98,-16.99 -10.08,-23.71 -17.41,-37.71 -5.14,-9.81 -1.92,-19.15 -2,-29.4 -0.08,-11.66 -2.8,-19.31 -7.3,-30.66 -8.4,-21.15 -21.17,-44.43 -31.6,-68.05 0.98,1.59 2,3.15 3.06,4.68 26.71,38.73 64.84,55.92 107.29,55.92 13.37,0 27.17,-1.7 41.16,-4.98 39.05,-9.13 82.35,-26.87 115.53,-49.76 26.97,3.68 54.12,6.4 81.34,6.4 5.38,0 10.78,-0.11 16.16,-0.33 43.31,-1.82 106.44,-20.35 121.15,-62.84 19.56,-56.47 -37.47,-93.38 -72.16,-128.32 22.53,22.65 50.98,41.65 67.35,69.14 18.31,30.75 10.09,64.07 -5.98,93.84 -14.64,27.12 -34.94,50.84 -47.07,79.34 -12.37,29.05 -23.75,65.61 -23.55,97.42 0.08,13.72 8.55,51.32 -8.96,58.15 -2.01,0.79 -3.63,1.13 -4.94,1.13 -8.38,0 -4.09,-14.34 -10.47,-20.68 -1.88,-1.87 -3.6,-2.71 -5.17,-2.71 -13.82,0 -16.43,65.69 -25.75,74.25 -0.06,0.06 -0.14,0.09 -0.21,0.09zm-283.66 -171.96c5.31,0 9.98,2.43 15.78,5.99 10.23,6.3 19.19,14.02 31.23,16.72 0.24,-3.62 -0.85,-7.05 -1.63,-10.27 1,-0.05 1.99,-0.07 2.98,-0.07 7.87,0 15.31,1.51 22.7,3.02 7.4,1.51 14.77,3.02 22.5,3.02 1.8,0 3.62,-0.09 5.47,-0.27 6.4,-0.64 12.02,-1.38 17.83,-1.38 3.81,0 7.7,0.32 11.93,1.2 8.6,1.79 17.79,4.7 26.71,4.7 1.2,0 2.38,-0.06 3.57,-0.17 -0.38,-9.48 -13.12,-7.56 -19.56,-9.47 -18.9,-5.61 -35.14,-15.86 -55.21,-18.05 -11.89,-1.3 -20.92,-6.57 -31.92,-10.58 -10.17,-3.71 -21.23,-4.34 -31.87,-5.7 -11.04,-1.4 -20.44,-5.79 -30.02,-11.05 -6.67,-3.67 -13.2,-9.13 -18.89,-14.23 -4.93,-4.42 -8.89,-9.06 -12.6,-14.53 -2.62,-3.87 -5.14,-9.31 -8.76,-12.27 2,4.44 4.09,8.83 6.28,13.19 8.15,16.28 16.79,32.22 18.72,50.6 0.37,3.57 -0.64,13.51 3.13,15.73 0.64,0.38 1.36,0.54 2.12,0.54 3.57,0 8.17,-3.52 10.75,-4.64 3.24,-1.41 6.08,-2.03 8.76,-2.03zm-82.62 -159.53c-1.13,-18.46 3,-36.15 15.92,-52.13 -0.47,0.67 -0.94,1.35 -1.39,2.04 -1.9,2.89 -3.48,5.92 -4.76,9.07 -6.58,12.65 -9.67,26.73 -9.77,41.03zm425.12 -124.61c0,-0.01 -0.01,-0.02 -0.01,-0.02 0,0 0.01,0.01 0.01,0.02zm-0.07 -0.08c-0.03,-0.03 -0.05,-0.06 -0.08,-0.08 0.03,0.02 0.06,0.05 0.08,0.08zm-0.12 -0.13c-0.04,-0.04 -0.08,-0.09 -0.12,-0.13 -11.66,-12.85 -22.05,-27.35 -33.2,-41.07 -12.53,-15.43 -26.02,-29.87 -43.34,-39.9 -16.07,-9.3 -33.42,-13.32 -50.87,-13.32 -23.74,0 -47.69,7.44 -68.94,19.18 21.25,-11.74 45.2,-19.18 68.94,-19.18 17.46,0 34.8,4.02 50.87,13.32 17.33,10.02 30.82,24.47 43.34,39.9 11.15,13.72 21.54,28.21 33.2,41.07 0.04,0.04 0.08,0.09 0.12,0.13z"/>
   <path class="fil1" d="M374 354.83c-10.66,4.58 -23.59,10.18 -35.66,13.69 -13.12,3.81 -25.98,4.63 -39.49,5.73 -6.7,0.55 -14.23,-1.82 -20.76,0.26 -4.03,1.28 2,1.93 4.14,2.49 13.76,3.61 25.35,1.53 39.26,0.65 7.64,-0.49 13.85,1.39 20.7,4.57 5.75,2.66 11.86,5.59 18.11,2.74 5.42,-2.49 9.03,-7.43 14.82,-9.44 6.07,-2.11 13.07,-2.24 19.44,-2.26 7.33,-0.03 14.02,2.29 21.21,2.96 7.38,0.68 10.91,-4.7 12.1,-11.43 1.46,-8.28 -5.49,-17.75 -6.06,-26.35 -0.36,-5.58 0.86,-12.09 3.9,-16.93 2.54,-4.05 7.52,-6.56 9.58,-10.86 -9.05,2.17 -16.93,10.18 -23.16,16.81 -3.27,3.48 -5.39,7.9 -8.9,11.16 -5.46,5.08 -13.92,9.14 -20.65,12.32 -2.91,1.37 -5.74,2.68 -8.57,3.89z"/>
   <path class="fil1" d="M167.09 373.73c-11.89,-1.3 -20.92,-6.57 -31.92,-10.58 -10.17,-3.71 -21.23,-4.34 -31.87,-5.7 -11.04,-1.4 -20.44,-5.79 -30.02,-11.05 -6.67,-3.67 -13.2,-9.13 -18.89,-14.23 -4.93,-4.42 -8.89,-9.06 -12.6,-14.53 -2.62,-3.87 -5.14,-9.31 -8.76,-12.27 2,4.44 4.09,8.83 6.28,13.19 8.15,16.28 16.79,32.22 18.72,50.6 0.37,3.57 -0.64,13.51 3.13,15.73 3.64,2.15 9.73,-2.74 12.87,-4.1 9.65,-4.19 15.82,-1.39 24.54,3.97 10.23,6.3 19.19,14.02 31.23,16.72 0.24,-3.62 -0.85,-7.05 -1.63,-10.27 8.99,-0.45 17.36,1.24 25.69,2.95 9.13,1.86 18.2,3.72 27.96,2.75 10.6,-1.06 19.07,-2.4 29.76,-0.18 9.75,2.02 20.27,5.5 30.28,4.53 -0.38,-9.48 -13.12,-7.56 -19.56,-9.47 -18.9,-5.61 -35.14,-15.86 -55.21,-18.05z"/>
   <path class="fil2" d="M86.1 442.84c2.92,-15.34 21.55,-15.34 21.55,-2.19 0,67.08 6.2,6.94 32.5,8.76 58.48,4.06 54.38,28.48 60.62,26.66 28.3,-8.25 32.44,17.17 26.66,50.03 -1.03,5.85 8.92,-3.72 9.86,-15.7 1.42,-18.02 2.37,-52.51 35.06,-54.05 15.73,-0.74 25.91,-7.49 43.38,-2.32 7.83,2.32 14.14,21.03 21.99,21.31 21.5,0.78 23.43,10.21 25.56,29.21 3.13,28.04 14.24,-45.28 37.61,-32.13 23.71,13.34 16.55,-23.95 17.16,-32.87 1.24,-18.09 4.76,-39.09 12.88,-55.84 -6.6,24.78 -6.03,32.92 -8.48,48.85 -2.16,14.06 11.4,57.78 -9.47,66.07 -14.88,5.91 -8.03,-12.21 -15.41,-19.55 -18.49,-18.37 -20.54,62 -30.91,71.53 -2.42,2.23 -7.4,-35.69 -7.84,-39.06 -3.1,-23.88 -3.98,-45.24 -29.73,-25.45 -3.31,-1.94 -3.88,-4.81 -4.51,-8.78 -3.46,-21.91 -23.94,-22 -41.32,-17.75 -13.11,3.21 -26.85,-2.31 -35.41,9.81 -11.27,15.97 -0.95,79.8 -25.25,81.01 -4.85,-15.32 0.02,-31.06 -2.12,-46.62 -3.96,-28.71 -13.41,-11.12 -31.49,-21.34 -6.98,-3.95 -6.08,-12.86 -11.54,-17.1 -4.55,-3.54 -8.31,-2.78 -13.36,-4.27 -5.71,-1.7 -7.16,-3.62 -12.05,-6.13 -9.46,-4.85 -21.41,-4.55 -28.34,4.85 -6.89,9.35 -1.62,32.77 -10.94,38.76 -12.58,8.09 -8.51,-20.66 -8.45,-26.9 0.1,-9.23 3.29,-24.9 -1.62,-33.17 -10.02,-16.88 -14.42,7.08 -13.97,15.5 0.33,6.19 0.91,15.32 -7.91,11.15 -6.94,-3.3 -5.2,-13.56 -4.86,-19.32 0.98,-16.99 -10.08,-23.71 -17.41,-37.71 -2.23,-4.25 -3.08,-9.06 -3.21,-14.25 4.76,17.04 27.11,18.3 26.01,49.71 -0.36,10.51 3.97,3.41 4.75,-0.73z"/>
   <path class="fil3" d="M431.18 100.77c-2.01,-2.02 -3.97,-4.06 -5.88,-6.15 1.87,2.04 3.84,4.1 5.88,6.15zm-5.89 -6.16c-0.02,-0.03 -0.04,-0.04 -0.06,-0.06 0.02,0.02 0.03,0.04 0.06,0.06zm-0.14 -0.14c-0.01,-0.02 -0.02,-0.03 -0.04,-0.05 0.02,0.02 0.03,0.03 0.04,0.05z"/>
   <g style="clip-path:url(#id0)">
    <image x="222.91" y="-6.5" width="307.11" height="303.88" xlink:href="snowdrift_08_Images\snowdrift_08_ImgID1.png"/>
   </g>
   <path class="fil4" d="M16.1 167.09c25.94,-36.75 81.87,-47.7 117.33,-72.73 -31.18,22.1 -68.74,33.22 -99.45,55.9 -0.19,0.14 -0.38,0.28 -0.57,0.42 -6.99,5.23 -12.71,10.71 -17.31,16.41z"/>
   <g style="clip-path:url(#id1)">
    <image x="1.58" y="145.35" width="39.74" height="38.93" xlink:href="snowdrift_08_Images\snowdrift_08_ImgID2.png"/>
   </g>
   <path class="fil5" d="M17.64 279.99c-11.24,-18.15 -17.6,-39.7 -17.46,-60.77 1.21,19.76 8.47,40.39 17.46,60.77z"/>
   <g style="clip-path:url(#id2)">
    <image x="-5.69" y="172.01" width="295.8" height="175.44" xlink:href="snowdrift_08_Images\snowdrift_08_ImgID3.png"/>
   </g>
   <path class="fil6" d="M133.43 94.36c0.21,-0.14 0.42,-0.3 0.63,-0.45 32.78,-23.45 58.81,-54.96 94.43,-74.66 -35.62,19.71 -61.66,51.21 -94.43,74.66 -0.21,0.15 -0.42,0.31 -0.63,0.45z"/>
   <g style="clip-path:url(#id3)">
    <image x="29.05" y="87.2" width="109.21" height="70.44" xlink:href="snowdrift_08_Images\snowdrift_08_ImgID4.png"/>
   </g>
   <g style="clip-path:url(#id4)">
    <image x="-5.69" y="-6.5" width="395.96" height="299.84" xlink:href="snowdrift_08_Images\snowdrift_08_ImgID5.png"/>
   </g>
  </g>
 </g>
</svg>
