<?xml version="1.0" encoding="UTF-8"?>
<!DOCTYPE svg PUBLIC "-//W3C//DTD SVG 1.1//EN" "http://www.w3.org/Graphics/SVG/1.1/DTD/svg11.dtd">
<!-- Creator: CorelDRAW 2021 (64-Bit) -->
<svg xmlns="http://www.w3.org/2000/svg" xml:space="preserve" width="20mm" height="20mm" version="1.1" style="shape-rendering:geometricPrecision; text-rendering:geometricPrecision; image-rendering:optimizeQuality; fill-rule:evenodd; clip-rule:evenodd"
viewBox="0 0 2000 2000"
 xmlns:xlink="http://www.w3.org/1999/xlink"
 xmlns:xodm="http://www.corel.com/coreldraw/odm/2003">
 <defs>
  <style type="text/css">
   <![CDATA[
    .str0 {stroke:#00A0E3;stroke-width:17.65;stroke-linejoin:bevel;stroke-miterlimit:22.9256}
    .fil0 {fill:#009846}
    .fil1 {fill:#FEFEFE}
   ]]>
  </style>
 </defs>
 <g id="Layer_x0020_1">
  <metadata id="CorelCorpID_0Corel-Layer"/>
  <rect class="fil0" x="-7.53" y="7.53" width="2000" height="2000"/>
  <g id="_2102133751232">
   <polygon class="fil1 str0" points="787.83,1497.36 957.67,1407.97 957.67,1497.36 785.6,1671.65 868.28,1671.65 997.89,1542.04 1127.5,1671.65 1212.42,1671.65 1040.34,1499.59 1040.34,1410.2 1210.18,1495.12 1268.28,1316.35 1330.85,1376.69 1330.85,1618.02 1391.18,1555.46 1391.18,1374.45 1576.66,1374.45 1634.76,1316.35 1391.18,1316.35 1326.38,1253.78 1505.15,1195.68 1424.71,1025.85 1507.39,1025.85 1679.46,1195.68 1679.46,1108.52 1552.08,983.39 1679.46,858.25 1679.46,768.85 1505.15,940.93 1424.71,940.93 1505.15,777.8 1326.38,713 1391.18,650.42 1632.53,650.42 1574.42,594.56 1386.72,594.56 1386.72,406.85 1326.38,346.52 1326.38,592.33 1270.51,648.18 1212.42,469.42 1040.34,558.8 1040.34,471.65 1210.18,301.82 1123.02,301.82 997.89,426.96 870.51,301.82 778.9,301.82 955.44,478.35 955.44,554.34 787.83,476.13 727.5,654.89 664.93,590.09 664.93,348.75 602.36,413.55 602.36,590.09 423.58,590.09 363.25,650.42 602.36,650.42 664.93,713 486.16,771.09 575.54,945.39 490.62,945.39 314.09,768.85 314.09,856.01 443.7,985.62 314.09,1115.23 311.86,1202.37 488.39,1028.07 575.54,1028.07 486.16,1195.68 664.93,1253.78 606.83,1316.35 358.78,1316.35 419.12,1376.69 604.6,1376.69 604.6,1555.46 664.93,1620.26 664.93,1372.21 727.5,1314.11 "/>
   <polygon class="fil1 str0" points="950.96,1106.29 950.96,1376.69 754.32,1568.86 850.4,1568.86 953.19,1468.3 953.19,1571.09 852.64,1767.75 997.89,2000.14 1145.38,1767.75 1044.82,1573.33 1044.82,1470.53 1143.14,1566.63 1237,1566.63 1044.82,1376.69 1044.82,1099.58 1241.46,1296.23 1241.46,1566.63 1306.28,1501.82 1306.28,1363.27 1377.78,1434.78 1447.05,1635.9 1730.85,1714.11 1659.34,1430.31 1444.81,1363.27 1375.54,1294 1514.09,1294 1581.12,1226.96 1306.28,1226.96 1114.08,1032.55 1391.18,1032.55 1581.12,1226.96 1581.12,1128.63 1482.8,1030.31 1581.12,1030.31 1773.31,1126.41 2016.88,983.39 1773.31,840.37 1581.12,934.23 1487.28,934.23 1576.66,842.61 1576.66,748.75 1391.18,936.46 1116.32,936.46 1304.03,744.28 1578.9,744.28 1505.15,675.01 1373.3,675.01 1444.81,603.5 1657.1,536.46 1721.91,259.36 1444.81,324.17 1375.54,536.46 1310.74,603.5 1310.74,462.72 1245.93,397.91 1245.93,670.54 1044.82,867.19 1044.82,594.56 1243.69,397.91 1145.38,397.91 1044.82,498.47 1044.82,400.15 1140.9,205.73 997.89,0.14 854.88,205.73 950.96,404.61 950.96,491.77 859.34,402.38 754.32,402.38 950.96,599.02 950.96,869.41 756.55,677.24 754.32,404.61 689.5,469.42 689.5,605.73 620.23,536.46 544.25,333.11 269.39,259.36 343.14,531.99 544.25,603.5 620.23,675.01 479.45,675.01 414.65,739.82 687.28,739.82 879.45,936.46 606.83,936.46 412.42,742.04 412.42,838.13 512.98,938.69 419.12,938.69 215.76,838.13 -16.64,985.62 218,1133.11 416.88,1032.55 512.98,1032.55 412.42,1135.35 412.42,1229.19 609.06,1028.07 888.39,1028.07 687.28,1229.19 412.42,1229.19 474.99,1294 620.23,1294 550.97,1361.04 336.44,1430.31 269.39,1720.82 550.97,1635.9 620.23,1430.31 689.5,1358.8 689.5,1506.3 754.32,1568.86 754.32,1300.71 "/>
   <polygon class="fil1 str0" points="1413.53,835.9 1413.53,835.9 1413.53,831.43 1413.53,824.73 1413.53,820.25 1411.3,815.79 1409.06,813.56 1404.59,806.85 1402.36,804.62 1400.12,800.14 1393.42,795.68 1391.18,793.44 1386.72,791.21 1382.24,788.97 1377.78,786.74 1373.3,784.5 1368.84,784.5 1364.37,784.5 1357.67,784.5 1353.19,784.5 1348.73,786.74 1342.02,788.97 1339.79,791.21 1335.31,793.44 1333.09,795.68 1326.38,800.14 1324.15,804.62 1319.68,806.85 1317.44,813.56 1315.21,815.79 1312.97,820.25 1312.97,824.73 1312.97,831.43 1312.97,835.9 1312.97,840.37 1312.97,844.84 1312.97,849.31 1315.21,853.77 1317.44,860.47 1319.68,862.71 1324.15,867.19 1326.38,871.65 1333.09,873.89 1335.31,876.12 1339.79,880.59 1342.02,882.83 1348.73,882.83 1353.19,882.83 1357.67,887.3 1364.37,887.3 1368.84,887.3 1373.3,882.83 1377.78,882.83 1382.24,882.83 1386.72,880.59 1391.18,876.12 1393.42,873.89 1400.12,871.65 1402.36,867.19 1404.59,862.71 1409.06,860.47 1411.3,853.77 1413.53,849.31 1413.53,844.84 1413.53,840.37 "/>
   <polygon class="fil1 str0" points="1413.53,1139.81 1413.53,1139.81 1413.53,1135.35 1413.53,1128.63 1413.53,1126.41 1411.3,1121.93 1409.06,1117.47 1404.59,1113 1402.36,1108.52 1400.12,1106.29 1393.42,1099.58 1391.18,1099.58 1386.72,1097.35 1382.24,1095.12 1377.78,1092.88 1373.3,1090.64 1368.84,1090.64 1364.37,1090.64 1357.67,1090.64 1353.19,1090.64 1348.73,1092.88 1342.02,1095.12 1339.79,1097.35 1335.31,1099.58 1333.09,1099.58 1326.38,1106.29 1324.15,1108.52 1319.68,1113 1317.44,1117.47 1315.21,1121.93 1312.97,1126.41 1312.97,1128.63 1312.97,1135.35 1312.97,1139.81 1312.97,1144.28 1312.97,1150.98 1312.97,1157.69 1315.21,1162.16 1317.44,1164.4 1319.68,1171.1 1324.15,1173.34 1326.38,1175.56 1333.09,1180.03 1335.31,1184.5 1339.79,1184.5 1342.02,1186.74 1348.73,1188.97 1353.19,1188.97 1357.67,1191.21 1364.37,1191.21 1368.84,1191.21 1373.3,1188.97 1377.78,1188.97 1382.24,1186.74 1386.72,1184.5 1391.18,1184.5 1393.42,1180.03 1400.12,1175.56 1402.36,1173.34 1404.59,1171.1 1409.06,1164.4 1411.3,1162.16 1413.53,1157.69 1413.53,1150.98 1413.53,1144.28 "/>
   <polygon class="fil1 str0" points="1201.24,1352.1 1201.24,1352.1 1201.24,1345.4 1199,1340.92 1199,1336.46 1196.78,1331.99 1194.54,1325.29 1192.3,1323.05 1190.07,1318.58 1185.6,1316.35 1181.13,1314.11 1178.89,1307.41 1174.43,1307.41 1167.73,1302.93 1167.73,1302.93 1158.78,1300.71 1154.31,1298.47 1149.84,1298.47 1145.38,1298.47 1140.9,1300.71 1134.2,1302.93 1131.96,1302.93 1125.26,1307.41 1123.02,1307.41 1116.32,1314.11 1114.08,1316.35 1109.62,1318.58 1107.39,1323.05 1105.15,1325.29 1105.15,1331.99 1100.68,1336.46 1100.68,1340.92 1098.45,1345.4 1098.45,1352.1 1098.45,1356.58 1100.68,1361.04 1100.68,1363.27 1105.15,1369.98 1105.15,1374.45 1107.39,1376.69 1109.62,1383.39 1114.08,1385.63 1116.32,1390.09 1123.02,1394.57 1125.26,1396.79 1131.96,1396.79 1134.2,1399.03 1140.9,1401.26 1145.38,1401.26 1149.84,1401.26 1154.31,1401.26 1158.78,1401.26 1167.73,1399.03 1167.73,1396.79 1174.43,1396.79 1178.89,1394.57 1181.13,1390.09 1185.6,1385.63 1190.07,1383.39 1192.3,1376.69 1194.54,1374.45 1196.78,1369.98 1199,1363.27 1199,1361.04 1201.24,1356.58 "/>
   <polygon class="fil1 str0" points="899.57,1352.1 899.57,1352.1 899.57,1345.4 899.57,1340.92 897.33,1336.46 895.09,1331.99 890.63,1325.29 888.39,1323.05 888.39,1318.58 883.92,1316.35 879.45,1314.11 877.22,1307.41 872.76,1307.41 866.04,1302.93 863.82,1302.93 857.11,1300.71 854.88,1298.47 848.16,1298.47 843.7,1298.47 839.23,1300.71 832.52,1302.93 828.06,1302.93 821.35,1307.41 819.11,1307.41 814.65,1314.11 810.17,1316.35 810.17,1318.58 805.71,1323.05 803.48,1325.29 801.24,1331.99 799,1336.46 799,1340.92 799,1345.4 799,1352.1 799,1356.58 799,1361.04 799,1363.27 801.24,1369.98 803.48,1374.45 805.71,1376.69 810.17,1383.39 810.17,1385.63 814.65,1390.09 819.11,1394.57 821.35,1396.79 828.06,1396.79 832.52,1399.03 839.23,1401.26 843.7,1401.26 848.16,1401.26 854.88,1401.26 857.11,1401.26 863.82,1399.03 866.04,1396.79 872.76,1396.79 877.22,1394.57 879.45,1390.09 883.92,1385.63 888.39,1383.39 888.39,1376.69 890.63,1374.45 895.09,1369.98 897.33,1363.27 899.57,1361.04 899.57,1356.58 "/>
   <polygon class="fil1 str0" points="687.28,1139.81 687.28,1139.81 687.28,1135.35 685.04,1128.63 685.04,1126.41 682.8,1121.93 680.56,1117.47 676.1,1113 673.87,1108.52 671.62,1106.29 664.93,1099.58 664.93,1099.58 658.22,1097.35 653.75,1095.12 649.28,1092.88 644.81,1090.64 640.35,1090.64 635.88,1090.64 631.41,1090.64 624.71,1090.64 620.23,1092.88 613.53,1095.12 611.29,1097.35 606.83,1099.58 602.36,1099.58 597.89,1106.29 595.66,1108.52 591.18,1113 588.94,1117.47 586.72,1121.93 586.72,1126.41 586.72,1128.63 584.48,1135.35 584.48,1139.81 584.48,1144.28 586.72,1150.98 586.72,1157.69 586.72,1162.16 588.94,1164.4 591.18,1171.1 595.66,1173.34 597.89,1175.56 602.36,1180.03 606.83,1184.5 611.29,1184.5 613.53,1186.74 620.23,1188.97 624.71,1188.97 631.41,1191.21 635.88,1191.21 640.35,1191.21 644.81,1188.97 649.28,1188.97 653.75,1186.74 658.22,1184.5 664.93,1184.5 664.93,1180.03 671.62,1175.56 673.87,1173.34 676.1,1171.1 680.56,1164.4 682.8,1162.16 685.04,1157.69 685.04,1150.98 687.28,1144.28 "/>
   <polygon class="fil1 str0" points="687.28,838.13 687.28,838.13 687.28,831.43 687.28,829.19 687.28,822.5 685.04,820.25 682.8,813.56 680.56,809.08 676.1,804.62 673.87,802.38 671.62,800.14 664.93,795.68 664.93,793.44 655.99,793.44 653.75,791.21 647.05,788.97 642.59,788.97 638.11,788.97 631.41,788.97 629.17,788.97 622.47,791.21 620.23,793.44 611.29,793.44 609.06,795.68 604.6,800.14 602.36,802.38 597.89,804.62 595.66,809.08 593.42,813.56 591.18,820.25 588.94,822.5 586.72,829.19 586.72,831.43 586.72,838.13 586.72,844.84 586.72,849.31 588.94,853.77 591.18,858.25 593.42,860.47 595.66,867.19 597.89,871.65 602.36,873.89 604.6,876.12 609.06,882.83 611.29,882.83 620.23,882.83 622.47,887.3 629.17,889.52 631.41,889.52 638.11,889.52 642.59,889.52 647.05,889.52 653.75,887.3 655.99,882.83 664.93,882.83 664.93,882.83 671.62,876.12 673.87,873.89 676.1,871.65 680.56,867.19 682.8,860.47 685.04,858.25 687.28,853.77 687.28,849.31 687.28,844.84 "/>
   <polygon class="fil1 str0" points="899.57,623.61 899.57,623.61 899.57,616.9 899.57,612.44 897.33,605.73 895.09,603.5 890.63,596.79 888.39,594.56 888.39,590.09 883.92,585.62 879.45,581.15 877.22,581.15 872.76,576.68 866.04,574.45 863.82,572.21 857.11,572.21 854.88,569.98 848.16,569.98 843.7,569.98 839.23,572.21 832.52,572.21 828.06,574.45 821.35,576.68 819.11,581.15 814.65,581.15 810.17,585.62 810.17,590.09 805.71,594.56 803.48,596.79 801.24,603.5 799,605.73 799,612.44 799,616.9 799,623.61 799,625.84 799,632.54 799,637.02 801.24,641.48 803.48,648.18 805.71,650.42 810.17,654.89 810.17,659.36 814.65,661.6 819.11,666.07 821.35,668.29 828.06,670.54 832.52,670.54 839.23,670.54 843.7,672.77 848.16,672.77 854.88,672.77 857.11,670.54 863.82,670.54 866.04,670.54 872.76,668.29 877.22,666.07 879.45,661.6 883.92,659.36 888.39,654.89 888.39,650.42 890.63,648.18 895.09,641.48 897.33,637.02 899.57,632.54 899.57,625.84 "/>
   <polygon class="fil1 str0" points="1201.24,623.61 1201.24,623.61 1201.24,616.9 1199,612.44 1199,605.73 1196.78,603.5 1194.54,596.79 1190.07,594.56 1190.07,590.09 1185.6,585.62 1181.13,581.15 1178.89,581.15 1174.43,576.68 1167.73,574.45 1165.49,572.21 1158.78,572.21 1154.31,569.98 1149.84,569.98 1145.38,569.98 1138.67,572.21 1134.2,572.21 1131.96,574.45 1125.26,576.68 1123.02,581.15 1116.32,581.15 1114.08,585.62 1109.62,590.09 1107.39,594.56 1105.15,596.79 1100.68,603.5 1100.68,605.73 1100.68,612.44 1098.45,616.9 1098.45,623.61 1098.45,625.84 1100.68,632.54 1100.68,637.02 1100.68,641.48 1105.15,648.18 1107.39,650.42 1109.62,654.89 1114.08,659.36 1116.32,661.6 1123.02,666.07 1125.26,668.29 1131.96,670.54 1134.2,670.54 1138.67,670.54 1145.38,672.77 1149.84,672.77 1154.31,672.77 1158.78,670.54 1165.49,670.54 1167.73,670.54 1174.43,668.29 1178.89,666.07 1181.13,661.6 1185.6,659.36 1190.07,654.89 1190.07,650.42 1194.54,648.18 1196.78,641.48 1199,637.02 1199,632.54 1201.24,625.84 "/>
  </g>
 </g>
</svg>
